<mxfile host="65bd71144e" pages="3">
    <diagram id="gOtrL2URskDQ1UG0tlP5" name="LF Crawlers">
        <mxGraphModel dx="2683" dy="2434" grid="1" gridSize="10" guides="1" tooltips="1" connect="1" arrows="1" fold="1" page="1" pageScale="1" pageWidth="1700" pageHeight="1100" background="#FFFFFF" math="0" shadow="0">
            <root>
                <mxCell id="XlJ5XplLEghIa-awfUSN-0"/>
                <mxCell id="XlJ5XplLEghIa-awfUSN-1" parent="XlJ5XplLEghIa-awfUSN-0"/>
                <mxCell id="XlJ5XplLEghIa-awfUSN-9" value="&lt;span style=&quot;color: rgb(0 , 0 , 0)&quot;&gt;CAEF&amp;nbsp;&amp;nbsp;&lt;/span&gt;&lt;font color=&quot;#000000&quot; style=&quot;font-size: 15px&quot;&gt;Data Lake Config&lt;/font&gt;" style="rounded=1;whiteSpace=wrap;html=1;fontColor=#FFFFFF;strokeColor=#FF8000;strokeWidth=4;fillColor=none;dashed=1;verticalAlign=middle;movableLabel=1;fontSize=15;" parent="XlJ5XplLEghIa-awfUSN-1" vertex="1">
                    <mxGeometry x="610" y="700" width="300" height="410" as="geometry">
                        <mxPoint x="-3" y="218" as="offset"/>
                    </mxGeometry>
                </mxCell>
                <mxCell id="7nMsDC21vSKUT9zVy8fL-2" value="&lt;span style=&quot;color: rgb(0 , 0 , 0)&quot;&gt;CAEF&amp;nbsp;&lt;/span&gt;&lt;font color=&quot;#000000&quot; style=&quot;font-size: 15px&quot;&gt;Lake Formation Settings&lt;br&gt;Config&lt;br&gt;&lt;/font&gt;" style="rounded=1;whiteSpace=wrap;html=1;fontColor=#FFFFFF;strokeColor=#FF8000;strokeWidth=4;fillColor=none;dashed=1;verticalAlign=middle;movableLabel=1;fontSize=15;" parent="XlJ5XplLEghIa-awfUSN-1" vertex="1">
                    <mxGeometry x="1445" y="420" width="240" height="220" as="geometry">
                        <mxPoint x="-4" y="131" as="offset"/>
                    </mxGeometry>
                </mxCell>
                <mxCell id="XlJ5XplLEghIa-awfUSN-29" value="&lt;span style=&quot;color: rgb(0 , 0 , 0)&quot;&gt;CAEF&amp;nbsp;&lt;/span&gt;&lt;font color=&quot;#000000&quot; style=&quot;font-size: 15px&quot;&gt;Roles Config&lt;/font&gt;" style="rounded=1;whiteSpace=wrap;html=1;fontColor=#FFFFFF;strokeColor=#FF8000;strokeWidth=4;fillColor=none;dashed=1;verticalAlign=middle;movableLabel=1;fontSize=15;" parent="XlJ5XplLEghIa-awfUSN-1" vertex="1">
                    <mxGeometry x="1425" y="730" width="280" height="400" as="geometry">
                        <mxPoint y="213" as="offset"/>
                    </mxGeometry>
                </mxCell>
                <mxCell id="XlJ5XplLEghIa-awfUSN-25" value="&lt;span style=&quot;color: rgb(0 , 0 , 0)&quot;&gt;CAEF&amp;nbsp;&lt;/span&gt;&lt;font color=&quot;#000000&quot; style=&quot;font-size: 15px&quot;&gt;Lake Formation &lt;br&gt;Access &lt;br&gt;Control Config&lt;/font&gt;" style="rounded=1;whiteSpace=wrap;html=1;fontColor=#FFFFFF;strokeColor=#FF8000;strokeWidth=4;fillColor=none;dashed=1;verticalAlign=middle;movableLabel=1;fontSize=15;" parent="XlJ5XplLEghIa-awfUSN-1" vertex="1">
                    <mxGeometry x="2130" y="389" width="240" height="250" as="geometry">
                        <mxPoint x="209" y="7" as="offset"/>
                    </mxGeometry>
                </mxCell>
                <mxCell id="XlJ5XplLEghIa-awfUSN-16" value="Governs Access&lt;br style=&quot;font-size: 15px;&quot;&gt;To Prefix" style="edgeStyle=orthogonalEdgeStyle;rounded=0;orthogonalLoop=1;jettySize=auto;html=1;entryX=0.5;entryY=1;entryDx=0;entryDy=0;entryPerimeter=0;fontColor=#000000;exitX=0.5;exitY=0;exitDx=0;exitDy=0;exitPerimeter=0;fontSize=15;" parent="XlJ5XplLEghIa-awfUSN-1" source="XlJ5XplLEghIa-awfUSN-6" target="XlJ5XplLEghIa-awfUSN-7" edge="1">
                    <mxGeometry x="-0.1209" relative="1" as="geometry">
                        <Array as="points">
                            <mxPoint x="765" y="930"/>
                            <mxPoint x="765" y="930"/>
                        </Array>
                        <mxPoint as="offset"/>
                    </mxGeometry>
                </mxCell>
                <mxCell id="XlJ5XplLEghIa-awfUSN-6" value="Data Lake &lt;br style=&quot;font-size: 15px;&quot;&gt;Location" style="sketch=0;points=[[0,0,0],[0.25,0,0],[0.5,0,0],[0.75,0,0],[1,0,0],[0,1,0],[0.25,1,0],[0.5,1,0],[0.75,1,0],[1,1,0],[0,0.25,0],[0,0.5,0],[0,0.75,0],[1,0.25,0],[1,0.5,0],[1,0.75,0]];outlineConnect=0;fontColor=#232F3E;gradientColor=#945DF2;gradientDirection=north;fillColor=#5A30B5;strokeColor=#ffffff;dashed=0;verticalLabelPosition=middle;verticalAlign=middle;align=right;html=1;fontSize=15;fontStyle=0;aspect=fixed;shape=mxgraph.aws4.resourceIcon;resIcon=mxgraph.aws4.lake_formation;labelPosition=left;" parent="XlJ5XplLEghIa-awfUSN-1" vertex="1">
                    <mxGeometry x="726" y="1000" width="78" height="78" as="geometry"/>
                </mxCell>
                <mxCell id="XlJ5XplLEghIa-awfUSN-7" value="Data Lake &lt;br&gt;Bucket Prefix" style="sketch=0;points=[[0,0,0],[0.25,0,0],[0.5,0,0],[0.75,0,0],[1,0,0],[0,1,0],[0.25,1,0],[0.5,1,0],[0.75,1,0],[1,1,0],[0,0.25,0],[0,0.5,0],[0,0.75,0],[1,0.25,0],[1,0.5,0],[1,0.75,0]];outlineConnect=0;fontColor=#232F3E;gradientColor=#60A337;gradientDirection=north;fillColor=#277116;strokeColor=#ffffff;dashed=0;verticalLabelPosition=bottom;verticalAlign=top;align=right;html=1;fontSize=15;fontStyle=0;aspect=fixed;shape=mxgraph.aws4.resourceIcon;resIcon=mxgraph.aws4.s3;labelPosition=left;" parent="XlJ5XplLEghIa-awfUSN-1" vertex="1">
                    <mxGeometry x="726" y="740" width="78" height="78" as="geometry"/>
                </mxCell>
                <mxCell id="XlJ5XplLEghIa-awfUSN-17" value="" style="group;labelPosition=center;verticalLabelPosition=middle;align=center;verticalAlign=middle;fontSize=15;" parent="XlJ5XplLEghIa-awfUSN-1" vertex="1" connectable="0">
                    <mxGeometry x="1525" y="969" width="80" height="80" as="geometry"/>
                </mxCell>
                <mxCell id="XlJ5XplLEghIa-awfUSN-18" value="&lt;font color=&quot;#000000&quot; style=&quot;font-size: 15px&quot;&gt;&amp;nbsp;Glue Crawler&lt;br style=&quot;font-size: 15px&quot;&gt;Role&lt;br style=&quot;font-size: 15px&quot;&gt;&lt;/font&gt;" style="whiteSpace=wrap;html=1;aspect=fixed;fontColor=#ffffff;strokeColor=none;strokeWidth=4;fillColor=#e51400;verticalAlign=bottom;movableLabel=1;fontSize=15;" parent="XlJ5XplLEghIa-awfUSN-17" vertex="1">
                    <mxGeometry width="80" height="80" as="geometry">
                        <mxPoint y="60" as="offset"/>
                    </mxGeometry>
                </mxCell>
                <mxCell id="XlJ5XplLEghIa-awfUSN-19" value="" style="sketch=0;outlineConnect=0;fontColor=#232F3E;gradientColor=none;fillColor=#FFFFFF;strokeColor=none;dashed=0;verticalLabelPosition=bottom;verticalAlign=top;align=center;html=1;fontSize=15;fontStyle=0;aspect=fixed;pointerEvents=1;shape=mxgraph.aws4.role;" parent="XlJ5XplLEghIa-awfUSN-17" vertex="1">
                    <mxGeometry x="7.779999999999973" y="21.82000000000005" width="64.45" height="36.36" as="geometry"/>
                </mxCell>
                <mxCell id="XlJ5XplLEghIa-awfUSN-22" value="" style="sketch=0;points=[[0,0,0],[0.25,0,0],[0.5,0,0],[0.75,0,0],[1,0,0],[0,1,0],[0.25,1,0],[0.5,1,0],[0.75,1,0],[1,1,0],[0,0.25,0],[0,0.5,0],[0,0.75,0],[1,0.25,0],[1,0.5,0],[1,0.75,0]];outlineConnect=0;fontColor=#232F3E;gradientColor=#945DF2;gradientDirection=north;fillColor=#5A30B5;strokeColor=#ffffff;dashed=0;verticalLabelPosition=bottom;verticalAlign=top;align=center;html=1;fontSize=15;fontStyle=0;aspect=fixed;shape=mxgraph.aws4.resourceIcon;resIcon=mxgraph.aws4.glue;" parent="XlJ5XplLEghIa-awfUSN-17" vertex="1">
                    <mxGeometry x="60" y="60" width="20" height="20" as="geometry"/>
                </mxCell>
                <mxCell id="XlJ5XplLEghIa-awfUSN-20" style="edgeStyle=orthogonalEdgeStyle;rounded=0;orthogonalLoop=1;jettySize=auto;html=1;entryX=1;entryY=0.5;entryDx=0;entryDy=0;entryPerimeter=0;fontColor=#000000;exitX=-0.022;exitY=0.165;exitDx=0;exitDy=0;fontSize=15;exitPerimeter=0;" parent="XlJ5XplLEghIa-awfUSN-1" source="XlJ5XplLEghIa-awfUSN-18" target="XlJ5XplLEghIa-awfUSN-7" edge="1">
                    <mxGeometry relative="1" as="geometry">
                        <Array as="points">
                            <mxPoint x="1150" y="982"/>
                            <mxPoint x="1150" y="779"/>
                        </Array>
                    </mxGeometry>
                </mxCell>
                <mxCell id="XlJ5XplLEghIa-awfUSN-21" value="Read Access to Prefix&lt;br style=&quot;font-size: 15px&quot;&gt;(Granted in Data Lake&lt;br style=&quot;font-size: 15px&quot;&gt;S3 Access Policies)" style="edgeLabel;html=1;align=center;verticalAlign=middle;resizable=0;points=[];fontColor=#000000;fontSize=15;" parent="XlJ5XplLEghIa-awfUSN-20" vertex="1" connectable="0">
                    <mxGeometry x="-0.6818" y="-2" relative="1" as="geometry">
                        <mxPoint x="-229" y="-100" as="offset"/>
                    </mxGeometry>
                </mxCell>
                <mxCell id="XlJ5XplLEghIa-awfUSN-24" value="Access To Create &lt;br style=&quot;font-size: 15px;&quot;&gt;Glue Resources for Location&lt;br style=&quot;font-size: 15px;&quot;&gt;(Granted in Bucket Lake Formation Location Config)" style="edgeStyle=orthogonalEdgeStyle;rounded=0;orthogonalLoop=1;jettySize=auto;html=1;fontColor=#000000;fontSize=15;" parent="XlJ5XplLEghIa-awfUSN-1" source="XlJ5XplLEghIa-awfUSN-18" target="XlJ5XplLEghIa-awfUSN-6" edge="1">
                    <mxGeometry x="0.0992" y="30" relative="1" as="geometry">
                        <Array as="points">
                            <mxPoint x="1210" y="1030"/>
                            <mxPoint x="1210" y="1029"/>
                        </Array>
                        <mxPoint as="offset"/>
                    </mxGeometry>
                </mxCell>
                <mxCell id="XlJ5XplLEghIa-awfUSN-26" value="&lt;span style=&quot;color: rgb(0 , 0 , 0)&quot;&gt;CAEF&amp;nbsp;&lt;/span&gt;&lt;font color=&quot;#000000&quot; style=&quot;font-size: 15px&quot;&gt;DataOps Project Config&lt;/font&gt;" style="rounded=1;whiteSpace=wrap;html=1;fontColor=#FFFFFF;strokeColor=#FF8000;strokeWidth=4;fillColor=none;dashed=1;verticalAlign=middle;movableLabel=1;fontSize=15;" parent="XlJ5XplLEghIa-awfUSN-1" vertex="1">
                    <mxGeometry x="1430" y="160" width="270" height="210" as="geometry">
                        <mxPoint x="4" y="119" as="offset"/>
                    </mxGeometry>
                </mxCell>
                <mxCell id="XlJ5XplLEghIa-awfUSN-27" value="Glue Project Database" style="sketch=0;points=[[0,0,0],[0.25,0,0],[0.5,0,0],[0.75,0,0],[1,0,0],[0,1,0],[0.25,1,0],[0.5,1,0],[0.75,1,0],[1,1,0],[0,0.25,0],[0,0.5,0],[0,0.75,0],[1,0.25,0],[1,0.5,0],[1,0.75,0]];outlineConnect=0;fontColor=#232F3E;gradientColor=#945DF2;gradientDirection=north;fillColor=#5A30B5;strokeColor=#ffffff;dashed=0;verticalLabelPosition=bottom;verticalAlign=top;align=center;html=1;fontSize=15;fontStyle=0;aspect=fixed;shape=mxgraph.aws4.resourceIcon;resIcon=mxgraph.aws4.glue;" parent="XlJ5XplLEghIa-awfUSN-1" vertex="1">
                    <mxGeometry x="1527" y="220" width="78" height="78" as="geometry"/>
                </mxCell>
                <mxCell id="XlJ5XplLEghIa-awfUSN-28" value="&lt;span style=&quot;color: rgb(0 , 0 , 0)&quot;&gt;CAEF&amp;nbsp;&lt;/span&gt;&lt;font color=&quot;#000000&quot; style=&quot;font-size: 15px&quot;&gt;DataOps Crawler Config&lt;/font&gt;" style="rounded=1;whiteSpace=wrap;html=1;fontColor=#FFFFFF;strokeColor=#FF8000;strokeWidth=4;fillColor=none;dashed=1;verticalAlign=middle;movableLabel=1;fontSize=15;" parent="XlJ5XplLEghIa-awfUSN-1" vertex="1">
                    <mxGeometry x="1420" y="-160" width="290" height="230" as="geometry">
                        <mxPoint x="-4" y="137" as="offset"/>
                    </mxGeometry>
                </mxCell>
                <mxCell id="XlJ5XplLEghIa-awfUSN-35" value="Uses Crawler&lt;br&gt;Role" style="edgeStyle=orthogonalEdgeStyle;rounded=0;orthogonalLoop=1;jettySize=auto;html=1;entryX=1;entryY=0;entryDx=0;entryDy=0;fontColor=#000000;fontSize=15;entryPerimeter=0;" parent="XlJ5XplLEghIa-awfUSN-1" source="XlJ5XplLEghIa-awfUSN-32" target="XlJ5XplLEghIa-awfUSN-22" edge="1">
                    <mxGeometry x="0.0219" relative="1" as="geometry">
                        <Array as="points">
                            <mxPoint x="2600" y="-51"/>
                            <mxPoint x="2600" y="1029"/>
                        </Array>
                        <mxPoint y="-1" as="offset"/>
                    </mxGeometry>
                </mxCell>
                <mxCell id="XlJ5XplLEghIa-awfUSN-37" value="Creates" style="edgeStyle=orthogonalEdgeStyle;rounded=0;orthogonalLoop=1;jettySize=auto;html=1;fontColor=#000000;exitX=0;exitY=0.75;exitDx=0;exitDy=0;exitPerimeter=0;fontSize=15;" parent="XlJ5XplLEghIa-awfUSN-1" source="XlJ5XplLEghIa-awfUSN-32" target="XlJ5XplLEghIa-awfUSN-36" edge="1">
                    <mxGeometry relative="1" as="geometry"/>
                </mxCell>
                <mxCell id="XlJ5XplLEghIa-awfUSN-39" value="Crawls" style="edgeStyle=orthogonalEdgeStyle;rounded=0;orthogonalLoop=1;jettySize=auto;html=1;fontColor=#000000;exitX=0;exitY=0.25;exitDx=0;exitDy=0;exitPerimeter=0;fontSize=15;entryX=0;entryY=0.5;entryDx=0;entryDy=0;entryPerimeter=0;" parent="XlJ5XplLEghIa-awfUSN-1" source="XlJ5XplLEghIa-awfUSN-32" target="XlJ5XplLEghIa-awfUSN-7" edge="1">
                    <mxGeometry x="0.1912" relative="1" as="geometry">
                        <mxPoint x="730" y="759" as="targetPoint"/>
                        <Array as="points">
                            <mxPoint x="570" y="-70"/>
                            <mxPoint x="570" y="779"/>
                        </Array>
                        <mxPoint as="offset"/>
                    </mxGeometry>
                </mxCell>
                <mxCell id="XlJ5XplLEghIa-awfUSN-32" value="Glue Crawler" style="sketch=0;points=[[0,0,0],[0.25,0,0],[0.5,0,0],[0.75,0,0],[1,0,0],[0,1,0],[0.25,1,0],[0.5,1,0],[0.75,1,0],[1,1,0],[0,0.25,0],[0,0.5,0],[0,0.75,0],[1,0.25,0],[1,0.5,0],[1,0.75,0]];outlineConnect=0;fontColor=#232F3E;gradientColor=#945DF2;gradientDirection=north;fillColor=#5A30B5;strokeColor=#ffffff;dashed=0;verticalLabelPosition=bottom;verticalAlign=top;align=center;html=1;fontSize=15;fontStyle=0;aspect=fixed;shape=mxgraph.aws4.resourceIcon;resIcon=mxgraph.aws4.glue;" parent="XlJ5XplLEghIa-awfUSN-1" vertex="1">
                    <mxGeometry x="1526" y="-90" width="78" height="78" as="geometry"/>
                </mxCell>
                <mxCell id="XlJ5XplLEghIa-awfUSN-38" value="Table Data &lt;br&gt;Location" style="edgeStyle=orthogonalEdgeStyle;rounded=0;orthogonalLoop=1;jettySize=auto;html=1;entryX=0.5;entryY=0;entryDx=0;entryDy=0;entryPerimeter=0;fontColor=#000000;exitX=0.5;exitY=1;exitDx=0;exitDy=0;exitPerimeter=0;fontSize=15;" parent="XlJ5XplLEghIa-awfUSN-1" source="XlJ5XplLEghIa-awfUSN-36" target="XlJ5XplLEghIa-awfUSN-7" edge="1">
                    <mxGeometry x="-0.479" relative="1" as="geometry">
                        <Array as="points">
                            <mxPoint x="765" y="550"/>
                            <mxPoint x="765" y="550"/>
                        </Array>
                        <mxPoint as="offset"/>
                    </mxGeometry>
                </mxCell>
                <mxCell id="XlJ5XplLEghIa-awfUSN-40" value="Created In" style="edgeStyle=orthogonalEdgeStyle;rounded=0;orthogonalLoop=1;jettySize=auto;html=1;entryX=0;entryY=0.25;entryDx=0;entryDy=0;entryPerimeter=0;fontColor=#000000;fontSize=15;exitX=1;exitY=0.5;exitDx=0;exitDy=0;exitPerimeter=0;" parent="XlJ5XplLEghIa-awfUSN-1" source="XlJ5XplLEghIa-awfUSN-36" target="XlJ5XplLEghIa-awfUSN-27" edge="1">
                    <mxGeometry relative="1" as="geometry">
                        <Array as="points">
                            <mxPoint x="804" y="240"/>
                        </Array>
                    </mxGeometry>
                </mxCell>
                <mxCell id="XlJ5XplLEghIa-awfUSN-36" value="Glue Tables" style="sketch=0;points=[[0,0,0],[0.25,0,0],[0.5,0,0],[0.75,0,0],[1,0,0],[0,1,0],[0.25,1,0],[0.5,1,0],[0.75,1,0],[1,1,0],[0,0.25,0],[0,0.5,0],[0,0.75,0],[1,0.25,0],[1,0.5,0],[1,0.75,0]];outlineConnect=0;fontColor=#232F3E;gradientColor=#945DF2;gradientDirection=north;fillColor=#5A30B5;strokeColor=#ffffff;dashed=0;verticalLabelPosition=middle;verticalAlign=middle;align=right;html=1;fontSize=15;fontStyle=0;aspect=fixed;shape=mxgraph.aws4.resourceIcon;resIcon=mxgraph.aws4.glue;labelPosition=left;" parent="XlJ5XplLEghIa-awfUSN-1" vertex="1">
                    <mxGeometry x="726" y="200" width="78" height="78" as="geometry"/>
                </mxCell>
                <mxCell id="XlJ5XplLEghIa-awfUSN-45" value="Access Granted To&lt;br&gt;Database" style="edgeStyle=orthogonalEdgeStyle;rounded=0;orthogonalLoop=1;jettySize=auto;html=1;fontColor=#000000;fontSize=15;exitX=0.5;exitY=0;exitDx=0;exitDy=0;exitPerimeter=0;entryX=1;entryY=0.25;entryDx=0;entryDy=0;entryPerimeter=0;" parent="XlJ5XplLEghIa-awfUSN-1" source="XlJ5XplLEghIa-awfUSN-42" target="XlJ5XplLEghIa-awfUSN-27" edge="1">
                    <mxGeometry x="-0.5778" relative="1" as="geometry">
                        <Array as="points">
                            <mxPoint x="2240" y="240"/>
                        </Array>
                        <mxPoint as="offset"/>
                    </mxGeometry>
                </mxCell>
                <mxCell id="XlJ5XplLEghIa-awfUSN-42" value="Read/Write &lt;br&gt;Grant" style="sketch=0;points=[[0,0,0],[0.25,0,0],[0.5,0,0],[0.75,0,0],[1,0,0],[0,1,0],[0.25,1,0],[0.5,1,0],[0.75,1,0],[1,1,0],[0,0.25,0],[0,0.5,0],[0,0.75,0],[1,0.25,0],[1,0.5,0],[1,0.75,0]];outlineConnect=0;fontColor=#232F3E;gradientColor=#945DF2;gradientDirection=north;fillColor=#5A30B5;strokeColor=#ffffff;dashed=0;verticalLabelPosition=middle;verticalAlign=middle;align=left;html=1;fontSize=15;fontStyle=0;aspect=fixed;shape=mxgraph.aws4.resourceIcon;resIcon=mxgraph.aws4.lake_formation;labelPosition=right;" parent="XlJ5XplLEghIa-awfUSN-1" vertex="1">
                    <mxGeometry x="2201" y="475" width="78" height="78" as="geometry"/>
                </mxCell>
                <mxCell id="XlJ5XplLEghIa-awfUSN-43" value="Grants Access To" style="edgeStyle=orthogonalEdgeStyle;rounded=0;orthogonalLoop=1;jettySize=auto;html=1;fontColor=#000000;exitX=0;exitY=0.5;exitDx=0;exitDy=0;exitPerimeter=0;fontSize=15;entryX=0;entryY=0.75;entryDx=0;entryDy=0;entryPerimeter=0;" parent="XlJ5XplLEghIa-awfUSN-1" source="XlJ5XplLEghIa-awfUSN-46" target="XlJ5XplLEghIa-awfUSN-27" edge="1">
                    <mxGeometry relative="1" as="geometry">
                        <mxPoint x="1520" y="279" as="targetPoint"/>
                        <Array as="points">
                            <mxPoint x="1290" y="829"/>
                            <mxPoint x="1290" y="279"/>
                        </Array>
                    </mxGeometry>
                </mxCell>
                <mxCell id="XlJ5XplLEghIa-awfUSN-44" value="Access Granted For&lt;br&gt;Role Principal" style="edgeStyle=orthogonalEdgeStyle;rounded=0;orthogonalLoop=1;jettySize=auto;html=1;entryX=0.5;entryY=1;entryDx=0;entryDy=0;entryPerimeter=0;fontColor=#000000;exitX=1;exitY=0.25;exitDx=0;exitDy=0;fontSize=15;" parent="XlJ5XplLEghIa-awfUSN-1" source="XlJ5XplLEghIa-awfUSN-18" target="XlJ5XplLEghIa-awfUSN-42" edge="1">
                    <mxGeometry x="0.3967" y="-1" relative="1" as="geometry">
                        <Array as="points">
                            <mxPoint x="2240" y="989"/>
                        </Array>
                        <mxPoint as="offset"/>
                    </mxGeometry>
                </mxCell>
                <mxCell id="XlJ5XplLEghIa-awfUSN-48" value="Grants Access For" style="edgeStyle=orthogonalEdgeStyle;rounded=0;orthogonalLoop=1;jettySize=auto;html=1;entryX=0.5;entryY=0;entryDx=0;entryDy=0;fontColor=#000000;fontSize=15;" parent="XlJ5XplLEghIa-awfUSN-1" source="XlJ5XplLEghIa-awfUSN-46" target="XlJ5XplLEghIa-awfUSN-18" edge="1">
                    <mxGeometry relative="1" as="geometry"/>
                </mxCell>
                <mxCell id="7nMsDC21vSKUT9zVy8fL-7" value="Grants Access Via" style="edgeStyle=orthogonalEdgeStyle;rounded=0;orthogonalLoop=1;jettySize=auto;html=1;fontSize=15;fontColor=#000000;" parent="XlJ5XplLEghIa-awfUSN-1" source="XlJ5XplLEghIa-awfUSN-46" target="7nMsDC21vSKUT9zVy8fL-4" edge="1">
                    <mxGeometry x="0.4628" relative="1" as="geometry">
                        <mxPoint y="-1" as="offset"/>
                    </mxGeometry>
                </mxCell>
                <mxCell id="XlJ5XplLEghIa-awfUSN-46" value="&lt;span style=&quot;color: rgb(0 , 0 , 0) ; font-family: &amp;#34;helvetica&amp;#34; ; font-size: 15px ; font-style: normal ; font-weight: 400 ; letter-spacing: normal ; text-align: center ; text-indent: 0px ; text-transform: none ; word-spacing: 0px ; background-color: rgb(255 , 255 , 255) ; display: inline ; float: none&quot;&gt;Glue Database Read/Write Access&lt;/span&gt;&lt;br style=&quot;color: rgb(0 , 0 , 0) ; font-family: &amp;#34;helvetica&amp;#34; ; font-size: 15px ; font-style: normal ; font-weight: 400 ; letter-spacing: normal ; text-align: center ; text-indent: 0px ; text-transform: none ; word-spacing: 0px&quot;&gt;&lt;span style=&quot;color: rgb(0 , 0 , 0) ; font-family: &amp;#34;helvetica&amp;#34; ; font-size: 15px ; font-style: normal ; font-weight: 400 ; letter-spacing: normal ; text-align: center ; text-indent: 0px ; text-transform: none ; word-spacing: 0px ; background-color: rgb(255 , 255 , 255) ; display: inline ; float: none&quot;&gt;IAM Managed Policy&lt;/span&gt;&lt;br style=&quot;color: rgb(0 , 0 , 0) ; font-family: &amp;#34;helvetica&amp;#34; ; font-size: 15px ; font-style: normal ; font-weight: 400 ; letter-spacing: normal ; text-align: center ; text-indent: 0px ; text-transform: none ; word-spacing: 0px&quot;&gt;" style="sketch=0;points=[[0,0,0],[0.25,0,0],[0.5,0,0],[0.75,0,0],[1,0,0],[0,1,0],[0.25,1,0],[0.5,1,0],[0.75,1,0],[1,1,0],[0,0.25,0],[0,0.5,0],[0,0.75,0],[1,0.25,0],[1,0.5,0],[1,0.75,0]];outlineConnect=0;fontColor=#232F3E;gradientColor=#F54749;gradientDirection=north;fillColor=#C7131F;strokeColor=#ffffff;dashed=0;verticalLabelPosition=top;verticalAlign=bottom;align=center;html=1;fontSize=15;fontStyle=0;aspect=fixed;shape=mxgraph.aws4.resourceIcon;resIcon=mxgraph.aws4.identity_and_access_management;labelPosition=center;" parent="XlJ5XplLEghIa-awfUSN-1" vertex="1">
                    <mxGeometry x="1527" y="790" width="78" height="78" as="geometry"/>
                </mxCell>
                <mxCell id="7nMsDC21vSKUT9zVy8fL-5" value="If Yes,&lt;br&gt;creates&lt;br&gt;on new&amp;nbsp;&lt;br&gt;Databases and&lt;br&gt;Tables" style="edgeStyle=orthogonalEdgeStyle;rounded=0;orthogonalLoop=1;jettySize=auto;html=1;fontSize=15;fontColor=#000000;" parent="XlJ5XplLEghIa-awfUSN-1" source="7nMsDC21vSKUT9zVy8fL-1" target="7nMsDC21vSKUT9zVy8fL-4" edge="1">
                    <mxGeometry relative="1" as="geometry"/>
                </mxCell>
                <mxCell id="7nMsDC21vSKUT9zVy8fL-1" value="Default&lt;br&gt;IAMAllowedPrincipals&lt;br&gt;Settings" style="sketch=0;points=[[0,0,0],[0.25,0,0],[0.5,0,0],[0.75,0,0],[1,0,0],[0,1,0],[0.25,1,0],[0.5,1,0],[0.75,1,0],[1,1,0],[0,0.25,0],[0,0.5,0],[0,0.75,0],[1,0.25,0],[1,0.5,0],[1,0.75,0]];outlineConnect=0;fontColor=#232F3E;gradientColor=#945DF2;gradientDirection=north;fillColor=#5A30B5;strokeColor=#ffffff;dashed=0;verticalLabelPosition=bottom;verticalAlign=top;align=center;html=1;fontSize=15;fontStyle=0;aspect=fixed;shape=mxgraph.aws4.resourceIcon;resIcon=mxgraph.aws4.lake_formation;labelPosition=center;" parent="XlJ5XplLEghIa-awfUSN-1" vertex="1">
                    <mxGeometry x="1526" y="475" width="78" height="78" as="geometry"/>
                </mxCell>
                <mxCell id="7nMsDC21vSKUT9zVy8fL-6" value="Grants Access To" style="edgeStyle=orthogonalEdgeStyle;rounded=0;orthogonalLoop=1;jettySize=auto;html=1;entryX=1;entryY=0.75;entryDx=0;entryDy=0;entryPerimeter=0;fontSize=15;fontColor=#000000;" parent="XlJ5XplLEghIa-awfUSN-1" source="7nMsDC21vSKUT9zVy8fL-4" target="XlJ5XplLEghIa-awfUSN-27" edge="1">
                    <mxGeometry x="-0.4137" relative="1" as="geometry">
                        <Array as="points">
                            <mxPoint x="1839" y="279"/>
                        </Array>
                        <mxPoint as="offset"/>
                    </mxGeometry>
                </mxCell>
                <mxCell id="7nMsDC21vSKUT9zVy8fL-4" value="IAMAllowedPrincipals&lt;br&gt;Grant" style="sketch=0;points=[[0,0,0],[0.25,0,0],[0.5,0,0],[0.75,0,0],[1,0,0],[0,1,0],[0.25,1,0],[0.5,1,0],[0.75,1,0],[1,1,0],[0,0.25,0],[0,0.5,0],[0,0.75,0],[1,0.25,0],[1,0.5,0],[1,0.75,0]];outlineConnect=0;fontColor=#232F3E;gradientColor=#945DF2;gradientDirection=north;fillColor=#5A30B5;strokeColor=#ffffff;dashed=0;verticalLabelPosition=middle;verticalAlign=middle;align=left;html=1;fontSize=15;fontStyle=0;aspect=fixed;shape=mxgraph.aws4.resourceIcon;resIcon=mxgraph.aws4.lake_formation;labelPosition=right;" parent="XlJ5XplLEghIa-awfUSN-1" vertex="1">
                    <mxGeometry x="1800" y="475" width="78" height="78" as="geometry"/>
                </mxCell>
                <mxCell id="7nMsDC21vSKUT9zVy8fL-8" value="Required if IAMAllowedPrincipals&lt;br&gt;Grant&amp;nbsp;does not exist" style="strokeWidth=1;shadow=0;dashed=0;align=center;html=1;shape=mxgraph.mockup.text.callout;linkText=;textSize=17;textColor=#666666;callDir=SW;callStyle=line;fontSize=17;fontColor=#666666;align=left;verticalAlign=bottom;strokeColor=#666666;fillColor=none;movableLabel=1;" parent="XlJ5XplLEghIa-awfUSN-1" vertex="1">
                    <mxGeometry x="1970" y="553" width="231" height="127" as="geometry">
                        <mxPoint x="-15" y="47" as="offset"/>
                    </mxGeometry>
                </mxCell>
            </root>
        </mxGraphModel>
    </diagram>
    <diagram name="LF Jobs" id="A9Fgcy2l-fBPzqSguryB">
        <mxGraphModel dx="3130" dy="2657" grid="1" gridSize="10" guides="1" tooltips="1" connect="1" arrows="1" fold="1" page="1" pageScale="1" pageWidth="1700" pageHeight="1100" background="#FFFFFF" math="0" shadow="0">
            <root>
                <mxCell id="zlxVHTxZF-DrcMVvX6r7-0"/>
                <mxCell id="zlxVHTxZF-DrcMVvX6r7-1" parent="zlxVHTxZF-DrcMVvX6r7-0"/>
                <mxCell id="zlxVHTxZF-DrcMVvX6r7-2" value="&lt;span style=&quot;color: rgb(0 , 0 , 0)&quot;&gt;CAEF&amp;nbsp;&lt;/span&gt;&lt;font color=&quot;#000000&quot; style=&quot;font-size: 15px&quot;&gt;Data Lake Config&lt;/font&gt;" style="rounded=1;whiteSpace=wrap;html=1;fontColor=#FFFFFF;strokeColor=#FF8000;strokeWidth=4;fillColor=none;dashed=1;verticalAlign=middle;movableLabel=1;fontSize=15;" parent="zlxVHTxZF-DrcMVvX6r7-1" vertex="1">
                    <mxGeometry x="610" y="700" width="300" height="410" as="geometry">
                        <mxPoint x="-3" y="218" as="offset"/>
                    </mxGeometry>
                </mxCell>
                <mxCell id="zlxVHTxZF-DrcMVvX6r7-3" value="&lt;span style=&quot;color: rgb(0 , 0 , 0)&quot;&gt;CAEF&amp;nbsp;&lt;/span&gt;&lt;font color=&quot;#000000&quot; style=&quot;font-size: 15px&quot;&gt;Lake Formation Settings&lt;br&gt;Config&lt;br&gt;&lt;/font&gt;" style="rounded=1;whiteSpace=wrap;html=1;fontColor=#FFFFFF;strokeColor=#FF8000;strokeWidth=4;fillColor=none;dashed=1;verticalAlign=middle;movableLabel=1;fontSize=15;" parent="zlxVHTxZF-DrcMVvX6r7-1" vertex="1">
                    <mxGeometry x="1445" y="420" width="240" height="220" as="geometry">
                        <mxPoint x="5" y="131" as="offset"/>
                    </mxGeometry>
                </mxCell>
                <mxCell id="zlxVHTxZF-DrcMVvX6r7-4" value="&lt;span style=&quot;color: rgb(0 , 0 , 0)&quot;&gt;CAEF&amp;nbsp;&lt;/span&gt;&lt;font color=&quot;#000000&quot; style=&quot;font-size: 15px&quot;&gt;Roles Config&lt;/font&gt;" style="rounded=1;whiteSpace=wrap;html=1;fontColor=#FFFFFF;strokeColor=#FF8000;strokeWidth=4;fillColor=none;dashed=1;verticalAlign=middle;movableLabel=1;fontSize=15;" parent="zlxVHTxZF-DrcMVvX6r7-1" vertex="1">
                    <mxGeometry x="1425" y="730" width="280" height="400" as="geometry">
                        <mxPoint x="-6" y="220" as="offset"/>
                    </mxGeometry>
                </mxCell>
                <mxCell id="zlxVHTxZF-DrcMVvX6r7-5" value="&lt;span style=&quot;color: rgb(0 , 0 , 0)&quot;&gt;CAEF&amp;nbsp;&lt;/span&gt;&lt;font color=&quot;#000000&quot; style=&quot;font-size: 15px&quot;&gt;Lake Formation &lt;br&gt;Access Control Config&lt;/font&gt;" style="rounded=1;whiteSpace=wrap;html=1;fontColor=#FFFFFF;strokeColor=#FF8000;strokeWidth=4;fillColor=none;dashed=1;verticalAlign=middle;movableLabel=1;fontSize=15;" parent="zlxVHTxZF-DrcMVvX6r7-1" vertex="1">
                    <mxGeometry x="2130" y="389" width="240" height="250" as="geometry">
                        <mxPoint x="205" y="2" as="offset"/>
                    </mxGeometry>
                </mxCell>
                <mxCell id="zlxVHTxZF-DrcMVvX6r7-6" value="Governs Access&lt;br style=&quot;font-size: 15px;&quot;&gt;To Prefix" style="edgeStyle=orthogonalEdgeStyle;rounded=0;orthogonalLoop=1;jettySize=auto;html=1;entryX=0.5;entryY=1;entryDx=0;entryDy=0;entryPerimeter=0;fontColor=#000000;exitX=0.5;exitY=0;exitDx=0;exitDy=0;exitPerimeter=0;fontSize=15;" parent="zlxVHTxZF-DrcMVvX6r7-1" source="zlxVHTxZF-DrcMVvX6r7-7" target="zlxVHTxZF-DrcMVvX6r7-8" edge="1">
                    <mxGeometry x="-0.1209" relative="1" as="geometry">
                        <Array as="points">
                            <mxPoint x="765" y="930"/>
                            <mxPoint x="765" y="930"/>
                        </Array>
                        <mxPoint as="offset"/>
                    </mxGeometry>
                </mxCell>
                <mxCell id="zlxVHTxZF-DrcMVvX6r7-7" value="Data Lake &lt;br style=&quot;font-size: 15px;&quot;&gt;Location" style="sketch=0;points=[[0,0,0],[0.25,0,0],[0.5,0,0],[0.75,0,0],[1,0,0],[0,1,0],[0.25,1,0],[0.5,1,0],[0.75,1,0],[1,1,0],[0,0.25,0],[0,0.5,0],[0,0.75,0],[1,0.25,0],[1,0.5,0],[1,0.75,0]];outlineConnect=0;fontColor=#232F3E;gradientColor=#945DF2;gradientDirection=north;fillColor=#5A30B5;strokeColor=#ffffff;dashed=0;verticalLabelPosition=middle;verticalAlign=middle;align=right;html=1;fontSize=15;fontStyle=0;aspect=fixed;shape=mxgraph.aws4.resourceIcon;resIcon=mxgraph.aws4.lake_formation;labelPosition=left;" parent="zlxVHTxZF-DrcMVvX6r7-1" vertex="1">
                    <mxGeometry x="726" y="1000" width="78" height="78" as="geometry"/>
                </mxCell>
                <mxCell id="zlxVHTxZF-DrcMVvX6r7-8" value="Data Lake &lt;br&gt;Bucket Prefix" style="sketch=0;points=[[0,0,0],[0.25,0,0],[0.5,0,0],[0.75,0,0],[1,0,0],[0,1,0],[0.25,1,0],[0.5,1,0],[0.75,1,0],[1,1,0],[0,0.25,0],[0,0.5,0],[0,0.75,0],[1,0.25,0],[1,0.5,0],[1,0.75,0]];outlineConnect=0;fontColor=#232F3E;gradientColor=#60A337;gradientDirection=north;fillColor=#277116;strokeColor=#ffffff;dashed=0;verticalLabelPosition=bottom;verticalAlign=top;align=right;html=1;fontSize=15;fontStyle=0;aspect=fixed;shape=mxgraph.aws4.resourceIcon;resIcon=mxgraph.aws4.s3;labelPosition=left;" parent="zlxVHTxZF-DrcMVvX6r7-1" vertex="1">
                    <mxGeometry x="726" y="740" width="78" height="78" as="geometry"/>
                </mxCell>
                <mxCell id="zlxVHTxZF-DrcMVvX6r7-9" value="" style="group;labelPosition=center;verticalLabelPosition=middle;align=center;verticalAlign=middle;fontSize=15;" parent="zlxVHTxZF-DrcMVvX6r7-1" vertex="1" connectable="0">
                    <mxGeometry x="1525" y="969" width="80" height="80" as="geometry"/>
                </mxCell>
                <mxCell id="zlxVHTxZF-DrcMVvX6r7-10" value="&lt;font color=&quot;#000000&quot; style=&quot;font-size: 15px&quot;&gt;&amp;nbsp;Glue Job&amp;nbsp;&lt;br style=&quot;font-size: 15px&quot;&gt;Role&lt;br style=&quot;font-size: 15px&quot;&gt;&lt;/font&gt;" style="whiteSpace=wrap;html=1;aspect=fixed;fontColor=#ffffff;strokeColor=none;strokeWidth=4;fillColor=#e51400;verticalAlign=bottom;movableLabel=1;fontSize=15;" parent="zlxVHTxZF-DrcMVvX6r7-9" vertex="1">
                    <mxGeometry width="80" height="80" as="geometry">
                        <mxPoint y="44" as="offset"/>
                    </mxGeometry>
                </mxCell>
                <mxCell id="zlxVHTxZF-DrcMVvX6r7-11" value="" style="sketch=0;outlineConnect=0;fontColor=#232F3E;gradientColor=none;fillColor=#FFFFFF;strokeColor=none;dashed=0;verticalLabelPosition=bottom;verticalAlign=top;align=center;html=1;fontSize=15;fontStyle=0;aspect=fixed;pointerEvents=1;shape=mxgraph.aws4.role;" parent="zlxVHTxZF-DrcMVvX6r7-9" vertex="1">
                    <mxGeometry x="7.779999999999973" y="21.82000000000005" width="64.45" height="36.36" as="geometry"/>
                </mxCell>
                <mxCell id="zlxVHTxZF-DrcMVvX6r7-12" value="" style="sketch=0;points=[[0,0,0],[0.25,0,0],[0.5,0,0],[0.75,0,0],[1,0,0],[0,1,0],[0.25,1,0],[0.5,1,0],[0.75,1,0],[1,1,0],[0,0.25,0],[0,0.5,0],[0,0.75,0],[1,0.25,0],[1,0.5,0],[1,0.75,0]];outlineConnect=0;fontColor=#232F3E;gradientColor=#945DF2;gradientDirection=north;fillColor=#5A30B5;strokeColor=#ffffff;dashed=0;verticalLabelPosition=bottom;verticalAlign=top;align=center;html=1;fontSize=15;fontStyle=0;aspect=fixed;shape=mxgraph.aws4.resourceIcon;resIcon=mxgraph.aws4.glue;" parent="zlxVHTxZF-DrcMVvX6r7-9" vertex="1">
                    <mxGeometry x="60" y="60" width="20" height="20" as="geometry"/>
                </mxCell>
                <mxCell id="zlxVHTxZF-DrcMVvX6r7-13" style="edgeStyle=orthogonalEdgeStyle;rounded=0;orthogonalLoop=1;jettySize=auto;html=1;entryX=1;entryY=0.75;entryDx=0;entryDy=0;entryPerimeter=0;fontColor=#000000;exitX=-0.022;exitY=0.165;exitDx=0;exitDy=0;fontSize=15;exitPerimeter=0;" parent="zlxVHTxZF-DrcMVvX6r7-1" source="zlxVHTxZF-DrcMVvX6r7-10" target="zlxVHTxZF-DrcMVvX6r7-8" edge="1">
                    <mxGeometry relative="1" as="geometry">
                        <Array as="points">
                            <mxPoint x="1150" y="983"/>
                            <mxPoint x="1150" y="799"/>
                        </Array>
                    </mxGeometry>
                </mxCell>
                <mxCell id="zlxVHTxZF-DrcMVvX6r7-14" value="Read Access to Prefix&lt;br style=&quot;font-size: 15px&quot;&gt;(Granted in Data Lake&lt;br style=&quot;font-size: 15px&quot;&gt;S3 Access Policies)" style="edgeLabel;html=1;align=center;verticalAlign=middle;resizable=0;points=[];fontColor=#000000;fontSize=15;" parent="zlxVHTxZF-DrcMVvX6r7-13" vertex="1" connectable="0">
                    <mxGeometry x="-0.6818" y="-2" relative="1" as="geometry">
                        <mxPoint x="-229" y="-100" as="offset"/>
                    </mxGeometry>
                </mxCell>
                <mxCell id="zlxVHTxZF-DrcMVvX6r7-15" value="Access To Create &lt;br style=&quot;font-size: 15px;&quot;&gt;Glue Resources for Location&lt;br style=&quot;font-size: 15px;&quot;&gt;(Granted in Bucket Lake Formation Location Config)" style="edgeStyle=orthogonalEdgeStyle;rounded=0;orthogonalLoop=1;jettySize=auto;html=1;fontColor=#000000;fontSize=15;" parent="zlxVHTxZF-DrcMVvX6r7-1" source="zlxVHTxZF-DrcMVvX6r7-10" target="zlxVHTxZF-DrcMVvX6r7-7" edge="1">
                    <mxGeometry x="0.0992" y="30" relative="1" as="geometry">
                        <Array as="points">
                            <mxPoint x="1210" y="1030"/>
                            <mxPoint x="1210" y="1029"/>
                        </Array>
                        <mxPoint as="offset"/>
                    </mxGeometry>
                </mxCell>
                <mxCell id="zlxVHTxZF-DrcMVvX6r7-16" value="&lt;span style=&quot;color: rgb(0 , 0 , 0)&quot;&gt;CAEF&amp;nbsp;&lt;/span&gt;&lt;font color=&quot;#000000&quot; style=&quot;font-size: 15px&quot;&gt;DataOps Project Config&lt;/font&gt;" style="rounded=1;whiteSpace=wrap;html=1;fontColor=#FFFFFF;strokeColor=#FF8000;strokeWidth=4;fillColor=none;dashed=1;verticalAlign=middle;movableLabel=1;fontSize=15;" parent="zlxVHTxZF-DrcMVvX6r7-1" vertex="1">
                    <mxGeometry x="1430" y="160" width="270" height="210" as="geometry">
                        <mxPoint x="4" y="119" as="offset"/>
                    </mxGeometry>
                </mxCell>
                <mxCell id="zlxVHTxZF-DrcMVvX6r7-17" value="Glue Project Database" style="sketch=0;points=[[0,0,0],[0.25,0,0],[0.5,0,0],[0.75,0,0],[1,0,0],[0,1,0],[0.25,1,0],[0.5,1,0],[0.75,1,0],[1,1,0],[0,0.25,0],[0,0.5,0],[0,0.75,0],[1,0.25,0],[1,0.5,0],[1,0.75,0]];outlineConnect=0;fontColor=#232F3E;gradientColor=#945DF2;gradientDirection=north;fillColor=#5A30B5;strokeColor=#ffffff;dashed=0;verticalLabelPosition=bottom;verticalAlign=top;align=center;html=1;fontSize=15;fontStyle=0;aspect=fixed;shape=mxgraph.aws4.resourceIcon;resIcon=mxgraph.aws4.glue;" parent="zlxVHTxZF-DrcMVvX6r7-1" vertex="1">
                    <mxGeometry x="1527" y="220" width="78" height="78" as="geometry"/>
                </mxCell>
                <mxCell id="zlxVHTxZF-DrcMVvX6r7-18" value="&lt;span style=&quot;color: rgb(0 , 0 , 0)&quot;&gt;CAEF&amp;nbsp;&lt;/span&gt;&lt;font color=&quot;#000000&quot; style=&quot;font-size: 15px&quot;&gt;DataOps Job Config&lt;/font&gt;" style="rounded=1;whiteSpace=wrap;html=1;fontColor=#FFFFFF;strokeColor=#FF8000;strokeWidth=4;fillColor=none;dashed=1;verticalAlign=middle;movableLabel=1;fontSize=15;" parent="zlxVHTxZF-DrcMVvX6r7-1" vertex="1">
                    <mxGeometry x="1420" y="-160" width="290" height="230" as="geometry">
                        <mxPoint x="-4" y="137" as="offset"/>
                    </mxGeometry>
                </mxCell>
                <mxCell id="zlxVHTxZF-DrcMVvX6r7-19" value="Uses Job&lt;br&gt;Role" style="edgeStyle=orthogonalEdgeStyle;rounded=0;orthogonalLoop=1;jettySize=auto;html=1;entryX=1;entryY=0;entryDx=0;entryDy=0;fontColor=#000000;fontSize=15;entryPerimeter=0;" parent="zlxVHTxZF-DrcMVvX6r7-1" source="zlxVHTxZF-DrcMVvX6r7-22" target="zlxVHTxZF-DrcMVvX6r7-12" edge="1">
                    <mxGeometry x="0.0219" relative="1" as="geometry">
                        <Array as="points">
                            <mxPoint x="2610" y="-51"/>
                            <mxPoint x="2610" y="1029"/>
                        </Array>
                        <mxPoint y="-1" as="offset"/>
                    </mxGeometry>
                </mxCell>
                <mxCell id="zlxVHTxZF-DrcMVvX6r7-20" value="Reads/Updates Table&lt;br&gt;Metadata" style="edgeStyle=orthogonalEdgeStyle;rounded=0;orthogonalLoop=1;jettySize=auto;html=1;fontColor=#000000;exitX=0;exitY=0.75;exitDx=0;exitDy=0;exitPerimeter=0;fontSize=15;entryX=0.25;entryY=0;entryDx=0;entryDy=0;entryPerimeter=0;" parent="zlxVHTxZF-DrcMVvX6r7-1" source="zlxVHTxZF-DrcMVvX6r7-22" target="zlxVHTxZF-DrcMVvX6r7-25" edge="1">
                    <mxGeometry relative="1" as="geometry"/>
                </mxCell>
                <mxCell id="zlxVHTxZF-DrcMVvX6r7-21" value="Reads/Writes&lt;br&gt;Data Directly &lt;br&gt;from S3" style="edgeStyle=orthogonalEdgeStyle;rounded=0;orthogonalLoop=1;jettySize=auto;html=1;fontColor=#000000;exitX=0;exitY=0.25;exitDx=0;exitDy=0;exitPerimeter=0;fontSize=15;entryX=0;entryY=0.5;entryDx=0;entryDy=0;entryPerimeter=0;" parent="zlxVHTxZF-DrcMVvX6r7-1" source="zlxVHTxZF-DrcMVvX6r7-22" target="zlxVHTxZF-DrcMVvX6r7-8" edge="1">
                    <mxGeometry x="0.1912" relative="1" as="geometry">
                        <mxPoint x="730" y="759" as="targetPoint"/>
                        <Array as="points">
                            <mxPoint x="570" y="-70"/>
                            <mxPoint x="570" y="779"/>
                        </Array>
                        <mxPoint as="offset"/>
                    </mxGeometry>
                </mxCell>
                <mxCell id="zlxVHTxZF-DrcMVvX6r7-22" value="Glue Job" style="sketch=0;points=[[0,0,0],[0.25,0,0],[0.5,0,0],[0.75,0,0],[1,0,0],[0,1,0],[0.25,1,0],[0.5,1,0],[0.75,1,0],[1,1,0],[0,0.25,0],[0,0.5,0],[0,0.75,0],[1,0.25,0],[1,0.5,0],[1,0.75,0]];outlineConnect=0;fontColor=#232F3E;gradientColor=#945DF2;gradientDirection=north;fillColor=#5A30B5;strokeColor=#ffffff;dashed=0;verticalLabelPosition=bottom;verticalAlign=top;align=center;html=1;fontSize=15;fontStyle=0;aspect=fixed;shape=mxgraph.aws4.resourceIcon;resIcon=mxgraph.aws4.glue;" parent="zlxVHTxZF-DrcMVvX6r7-1" vertex="1">
                    <mxGeometry x="1526" y="-90" width="78" height="78" as="geometry"/>
                </mxCell>
                <mxCell id="zlxVHTxZF-DrcMVvX6r7-23" value="Table Data &lt;br&gt;Location" style="edgeStyle=orthogonalEdgeStyle;rounded=0;orthogonalLoop=1;jettySize=auto;html=1;entryX=0.5;entryY=0;entryDx=0;entryDy=0;entryPerimeter=0;fontColor=#000000;exitX=0.5;exitY=1;exitDx=0;exitDy=0;exitPerimeter=0;fontSize=15;" parent="zlxVHTxZF-DrcMVvX6r7-1" source="zlxVHTxZF-DrcMVvX6r7-25" target="zlxVHTxZF-DrcMVvX6r7-8" edge="1">
                    <mxGeometry x="-0.479" relative="1" as="geometry">
                        <Array as="points">
                            <mxPoint x="765" y="550"/>
                            <mxPoint x="765" y="550"/>
                        </Array>
                        <mxPoint as="offset"/>
                    </mxGeometry>
                </mxCell>
                <mxCell id="zlxVHTxZF-DrcMVvX6r7-24" value="Exists In" style="edgeStyle=orthogonalEdgeStyle;rounded=0;orthogonalLoop=1;jettySize=auto;html=1;entryX=0;entryY=0.25;entryDx=0;entryDy=0;entryPerimeter=0;fontColor=#000000;fontSize=15;exitX=1;exitY=0.5;exitDx=0;exitDy=0;exitPerimeter=0;" parent="zlxVHTxZF-DrcMVvX6r7-1" source="zlxVHTxZF-DrcMVvX6r7-25" target="zlxVHTxZF-DrcMVvX6r7-17" edge="1">
                    <mxGeometry relative="1" as="geometry">
                        <Array as="points">
                            <mxPoint x="804" y="240"/>
                        </Array>
                    </mxGeometry>
                </mxCell>
                <mxCell id="zlxVHTxZF-DrcMVvX6r7-25" value="Glue Tables" style="sketch=0;points=[[0,0,0],[0.25,0,0],[0.5,0,0],[0.75,0,0],[1,0,0],[0,1,0],[0.25,1,0],[0.5,1,0],[0.75,1,0],[1,1,0],[0,0.25,0],[0,0.5,0],[0,0.75,0],[1,0.25,0],[1,0.5,0],[1,0.75,0]];outlineConnect=0;fontColor=#232F3E;gradientColor=#945DF2;gradientDirection=north;fillColor=#5A30B5;strokeColor=#ffffff;dashed=0;verticalLabelPosition=middle;verticalAlign=middle;align=right;html=1;fontSize=15;fontStyle=0;aspect=fixed;shape=mxgraph.aws4.resourceIcon;resIcon=mxgraph.aws4.glue;labelPosition=left;" parent="zlxVHTxZF-DrcMVvX6r7-1" vertex="1">
                    <mxGeometry x="726" y="200" width="78" height="78" as="geometry"/>
                </mxCell>
                <mxCell id="ox2bUQVCZa_hVKRrS906-3" style="edgeStyle=orthogonalEdgeStyle;rounded=0;orthogonalLoop=1;jettySize=auto;html=1;entryX=0.5;entryY=0;entryDx=0;entryDy=0;entryPerimeter=0;fontSize=15;fontColor=#000000;" parent="zlxVHTxZF-DrcMVvX6r7-1" source="zlxVHTxZF-DrcMVvX6r7-27" target="zlxVHTxZF-DrcMVvX6r7-25" edge="1">
                    <mxGeometry relative="1" as="geometry">
                        <Array as="points">
                            <mxPoint x="2240" y="120"/>
                            <mxPoint x="765" y="120"/>
                        </Array>
                    </mxGeometry>
                </mxCell>
                <mxCell id="zlxVHTxZF-DrcMVvX6r7-27" value="Read/Write &lt;br&gt;Grant" style="sketch=0;points=[[0,0,0],[0.25,0,0],[0.5,0,0],[0.75,0,0],[1,0,0],[0,1,0],[0.25,1,0],[0.5,1,0],[0.75,1,0],[1,1,0],[0,0.25,0],[0,0.5,0],[0,0.75,0],[1,0.25,0],[1,0.5,0],[1,0.75,0]];outlineConnect=0;fontColor=#232F3E;gradientColor=#945DF2;gradientDirection=north;fillColor=#5A30B5;strokeColor=#ffffff;dashed=0;verticalLabelPosition=middle;verticalAlign=middle;align=left;html=1;fontSize=15;fontStyle=0;aspect=fixed;shape=mxgraph.aws4.resourceIcon;resIcon=mxgraph.aws4.lake_formation;labelPosition=right;" parent="zlxVHTxZF-DrcMVvX6r7-1" vertex="1">
                    <mxGeometry x="2201" y="475" width="78" height="78" as="geometry"/>
                </mxCell>
                <mxCell id="zlxVHTxZF-DrcMVvX6r7-28" value="Grants Access To" style="edgeStyle=orthogonalEdgeStyle;rounded=0;orthogonalLoop=1;jettySize=auto;html=1;fontColor=#000000;exitX=0;exitY=0.5;exitDx=0;exitDy=0;exitPerimeter=0;fontSize=15;entryX=0;entryY=0.75;entryDx=0;entryDy=0;entryPerimeter=0;" parent="zlxVHTxZF-DrcMVvX6r7-1" source="zlxVHTxZF-DrcMVvX6r7-32" target="zlxVHTxZF-DrcMVvX6r7-17" edge="1">
                    <mxGeometry relative="1" as="geometry">
                        <mxPoint x="1520" y="279" as="targetPoint"/>
                        <Array as="points">
                            <mxPoint x="1290" y="829"/>
                            <mxPoint x="1290" y="279"/>
                        </Array>
                    </mxGeometry>
                </mxCell>
                <mxCell id="zlxVHTxZF-DrcMVvX6r7-29" value="Access Granted For&lt;br&gt;Role Principal" style="edgeStyle=orthogonalEdgeStyle;rounded=0;orthogonalLoop=1;jettySize=auto;html=1;entryX=0.5;entryY=1;entryDx=0;entryDy=0;entryPerimeter=0;fontColor=#000000;exitX=1;exitY=0.25;exitDx=0;exitDy=0;fontSize=15;" parent="zlxVHTxZF-DrcMVvX6r7-1" source="zlxVHTxZF-DrcMVvX6r7-10" target="zlxVHTxZF-DrcMVvX6r7-27" edge="1">
                    <mxGeometry x="0.3967" y="-1" relative="1" as="geometry">
                        <Array as="points">
                            <mxPoint x="2240" y="989"/>
                        </Array>
                        <mxPoint as="offset"/>
                    </mxGeometry>
                </mxCell>
                <mxCell id="zlxVHTxZF-DrcMVvX6r7-30" value="Grants Access For" style="edgeStyle=orthogonalEdgeStyle;rounded=0;orthogonalLoop=1;jettySize=auto;html=1;entryX=0.5;entryY=0;entryDx=0;entryDy=0;fontColor=#000000;fontSize=15;" parent="zlxVHTxZF-DrcMVvX6r7-1" source="zlxVHTxZF-DrcMVvX6r7-32" target="zlxVHTxZF-DrcMVvX6r7-10" edge="1">
                    <mxGeometry relative="1" as="geometry"/>
                </mxCell>
                <mxCell id="zlxVHTxZF-DrcMVvX6r7-31" value="Grants Access Via" style="edgeStyle=orthogonalEdgeStyle;rounded=0;orthogonalLoop=1;jettySize=auto;html=1;fontSize=15;fontColor=#000000;" parent="zlxVHTxZF-DrcMVvX6r7-1" source="zlxVHTxZF-DrcMVvX6r7-32" target="zlxVHTxZF-DrcMVvX6r7-36" edge="1">
                    <mxGeometry x="0.4628" relative="1" as="geometry">
                        <mxPoint y="-1" as="offset"/>
                    </mxGeometry>
                </mxCell>
                <mxCell id="zlxVHTxZF-DrcMVvX6r7-32" value="&lt;span style=&quot;color: rgb(0 , 0 , 0) ; font-family: &amp;#34;helvetica&amp;#34; ; font-size: 15px ; font-style: normal ; font-weight: 400 ; letter-spacing: normal ; text-align: center ; text-indent: 0px ; text-transform: none ; word-spacing: 0px ; background-color: rgb(255 , 255 , 255) ; display: inline ; float: none&quot;&gt;Glue Database Read/Write Access&lt;/span&gt;&lt;br style=&quot;color: rgb(0 , 0 , 0) ; font-family: &amp;#34;helvetica&amp;#34; ; font-size: 15px ; font-style: normal ; font-weight: 400 ; letter-spacing: normal ; text-align: center ; text-indent: 0px ; text-transform: none ; word-spacing: 0px&quot;&gt;&lt;span style=&quot;color: rgb(0 , 0 , 0) ; font-family: &amp;#34;helvetica&amp;#34; ; font-size: 15px ; font-style: normal ; font-weight: 400 ; letter-spacing: normal ; text-align: center ; text-indent: 0px ; text-transform: none ; word-spacing: 0px ; background-color: rgb(255 , 255 , 255) ; display: inline ; float: none&quot;&gt;IAM Managed Policy&lt;/span&gt;&lt;br style=&quot;color: rgb(0 , 0 , 0) ; font-family: &amp;#34;helvetica&amp;#34; ; font-size: 15px ; font-style: normal ; font-weight: 400 ; letter-spacing: normal ; text-align: center ; text-indent: 0px ; text-transform: none ; word-spacing: 0px&quot;&gt;" style="sketch=0;points=[[0,0,0],[0.25,0,0],[0.5,0,0],[0.75,0,0],[1,0,0],[0,1,0],[0.25,1,0],[0.5,1,0],[0.75,1,0],[1,1,0],[0,0.25,0],[0,0.5,0],[0,0.75,0],[1,0.25,0],[1,0.5,0],[1,0.75,0]];outlineConnect=0;fontColor=#232F3E;gradientColor=#F54749;gradientDirection=north;fillColor=#C7131F;strokeColor=#ffffff;dashed=0;verticalLabelPosition=top;verticalAlign=bottom;align=center;html=1;fontSize=15;fontStyle=0;aspect=fixed;shape=mxgraph.aws4.resourceIcon;resIcon=mxgraph.aws4.identity_and_access_management;labelPosition=center;" parent="zlxVHTxZF-DrcMVvX6r7-1" vertex="1">
                    <mxGeometry x="1527" y="790" width="78" height="78" as="geometry"/>
                </mxCell>
                <mxCell id="zlxVHTxZF-DrcMVvX6r7-33" value="If Yes,&lt;br&gt;creates&lt;br&gt;on new&amp;nbsp;&lt;br&gt;Databases and&lt;br&gt;Tables" style="edgeStyle=orthogonalEdgeStyle;rounded=0;orthogonalLoop=1;jettySize=auto;html=1;fontSize=15;fontColor=#000000;" parent="zlxVHTxZF-DrcMVvX6r7-1" source="zlxVHTxZF-DrcMVvX6r7-34" target="zlxVHTxZF-DrcMVvX6r7-36" edge="1">
                    <mxGeometry relative="1" as="geometry"/>
                </mxCell>
                <mxCell id="zlxVHTxZF-DrcMVvX6r7-34" value="Default&lt;br&gt;IAMAllowedPrincipals&lt;br&gt;Settings" style="sketch=0;points=[[0,0,0],[0.25,0,0],[0.5,0,0],[0.75,0,0],[1,0,0],[0,1,0],[0.25,1,0],[0.5,1,0],[0.75,1,0],[1,1,0],[0,0.25,0],[0,0.5,0],[0,0.75,0],[1,0.25,0],[1,0.5,0],[1,0.75,0]];outlineConnect=0;fontColor=#232F3E;gradientColor=#945DF2;gradientDirection=north;fillColor=#5A30B5;strokeColor=#ffffff;dashed=0;verticalLabelPosition=bottom;verticalAlign=top;align=center;html=1;fontSize=15;fontStyle=0;aspect=fixed;shape=mxgraph.aws4.resourceIcon;resIcon=mxgraph.aws4.lake_formation;labelPosition=center;" parent="zlxVHTxZF-DrcMVvX6r7-1" vertex="1">
                    <mxGeometry x="1526" y="475" width="78" height="78" as="geometry"/>
                </mxCell>
                <mxCell id="ox2bUQVCZa_hVKRrS906-1" style="edgeStyle=orthogonalEdgeStyle;rounded=0;orthogonalLoop=1;jettySize=auto;html=1;fontSize=15;fontColor=#000000;" parent="zlxVHTxZF-DrcMVvX6r7-1" source="zlxVHTxZF-DrcMVvX6r7-36" edge="1">
                    <mxGeometry relative="1" as="geometry">
                        <mxPoint x="785" y="200" as="targetPoint"/>
                        <Array as="points">
                            <mxPoint x="1839" y="140"/>
                            <mxPoint x="784" y="140"/>
                            <mxPoint x="784" y="200"/>
                        </Array>
                    </mxGeometry>
                </mxCell>
                <mxCell id="zlxVHTxZF-DrcMVvX6r7-36" value="IAMAllowedPrincipals&lt;br&gt;Grant" style="sketch=0;points=[[0,0,0],[0.25,0,0],[0.5,0,0],[0.75,0,0],[1,0,0],[0,1,0],[0.25,1,0],[0.5,1,0],[0.75,1,0],[1,1,0],[0,0.25,0],[0,0.5,0],[0,0.75,0],[1,0.25,0],[1,0.5,0],[1,0.75,0]];outlineConnect=0;fontColor=#232F3E;gradientColor=#945DF2;gradientDirection=north;fillColor=#5A30B5;strokeColor=#ffffff;dashed=0;verticalLabelPosition=middle;verticalAlign=middle;align=left;html=1;fontSize=15;fontStyle=0;aspect=fixed;shape=mxgraph.aws4.resourceIcon;resIcon=mxgraph.aws4.lake_formation;labelPosition=right;" parent="zlxVHTxZF-DrcMVvX6r7-1" vertex="1">
                    <mxGeometry x="1800" y="475" width="78" height="78" as="geometry"/>
                </mxCell>
                <mxCell id="zlxVHTxZF-DrcMVvX6r7-37" value="Required if IAMAllowedPrincipals&lt;br&gt;Grant&amp;nbsp;does not exist" style="strokeWidth=1;shadow=0;dashed=0;align=center;html=1;shape=mxgraph.mockup.text.callout;linkText=;textSize=17;textColor=#666666;callDir=SW;callStyle=line;fontSize=17;fontColor=#666666;align=left;verticalAlign=bottom;strokeColor=#666666;fillColor=none;movableLabel=1;" parent="zlxVHTxZF-DrcMVvX6r7-1" vertex="1">
                    <mxGeometry x="1961" y="553" width="240" height="180" as="geometry">
                        <mxPoint x="-23" y="48" as="offset"/>
                    </mxGeometry>
                </mxCell>
                <mxCell id="zlxVHTxZF-DrcMVvX6r7-26" value="Access Granted To" style="edgeStyle=orthogonalEdgeStyle;rounded=0;orthogonalLoop=1;jettySize=auto;html=1;fontColor=#000000;fontSize=15;exitX=0.5;exitY=0;exitDx=0;exitDy=0;exitPerimeter=0;entryX=1;entryY=0.25;entryDx=0;entryDy=0;entryPerimeter=0;" parent="zlxVHTxZF-DrcMVvX6r7-1" source="zlxVHTxZF-DrcMVvX6r7-27" target="zlxVHTxZF-DrcMVvX6r7-17" edge="1">
                    <mxGeometry x="-0.5778" relative="1" as="geometry">
                        <Array as="points">
                            <mxPoint x="2240" y="240"/>
                        </Array>
                        <mxPoint as="offset"/>
                    </mxGeometry>
                </mxCell>
                <mxCell id="zlxVHTxZF-DrcMVvX6r7-35" value="Grants Access To" style="edgeStyle=orthogonalEdgeStyle;rounded=0;orthogonalLoop=1;jettySize=auto;html=1;entryX=1;entryY=0.75;entryDx=0;entryDy=0;entryPerimeter=0;fontSize=15;fontColor=#000000;" parent="zlxVHTxZF-DrcMVvX6r7-1" source="zlxVHTxZF-DrcMVvX6r7-36" target="zlxVHTxZF-DrcMVvX6r7-17" edge="1">
                    <mxGeometry x="-0.4137" relative="1" as="geometry">
                        <Array as="points">
                            <mxPoint x="1839" y="279"/>
                        </Array>
                        <mxPoint as="offset"/>
                    </mxGeometry>
                </mxCell>
            </root>
        </mxGraphModel>
    </diagram>
    <diagram name="LF Users" id="BZt7HjL5OpfZ0QqiNQOj">
        <mxGraphModel dx="4383" dy="2434" grid="1" gridSize="10" guides="1" tooltips="1" connect="1" arrows="1" fold="1" page="1" pageScale="1" pageWidth="1700" pageHeight="1100" background="#FFFFFF" math="0" shadow="0">
            <root>
                <mxCell id="58zZ9XWiCAFXsrdQ09uZ-0"/>
                <mxCell id="58zZ9XWiCAFXsrdQ09uZ-1" parent="58zZ9XWiCAFXsrdQ09uZ-0"/>
                <mxCell id="OqTWC3pOlkOdufOc6wLX-1" value="&lt;font color=&quot;#000000&quot; style=&quot;font-size: 15px&quot;&gt;CAEF Roles Config&lt;/font&gt;" style="rounded=1;whiteSpace=wrap;html=1;fontColor=#FFFFFF;strokeColor=#FF8000;strokeWidth=4;fillColor=none;dashed=1;verticalAlign=middle;movableLabel=1;fontSize=15;" parent="58zZ9XWiCAFXsrdQ09uZ-1" vertex="1">
                    <mxGeometry x="1524.93" y="510" width="280" height="540" as="geometry">
                        <mxPoint x="-3" y="292" as="offset"/>
                    </mxGeometry>
                </mxCell>
                <mxCell id="OqTWC3pOlkOdufOc6wLX-24" style="edgeStyle=orthogonalEdgeStyle;rounded=0;orthogonalLoop=1;jettySize=auto;html=1;entryX=1;entryY=0.5;entryDx=0;entryDy=0;entryPerimeter=0;fontSize=15;fontColor=#000000;" parent="58zZ9XWiCAFXsrdQ09uZ-1" source="OqTWC3pOlkOdufOc6wLX-9" target="58zZ9XWiCAFXsrdQ09uZ-30" edge="1">
                    <mxGeometry relative="1" as="geometry">
                        <Array as="points">
                            <mxPoint x="1110" y="19"/>
                        </Array>
                    </mxGeometry>
                </mxCell>
                <mxCell id="58zZ9XWiCAFXsrdQ09uZ-4" value="&lt;span style=&quot;color: rgb(0 , 0 , 0)&quot;&gt;CAEF&amp;nbsp;&lt;/span&gt;&lt;font color=&quot;#000000&quot; style=&quot;font-size: 15px&quot;&gt;Data Lake Config&lt;/font&gt;" style="rounded=1;whiteSpace=wrap;html=1;fontColor=#FFFFFF;strokeColor=#FF8000;strokeWidth=4;fillColor=none;dashed=1;verticalAlign=middle;movableLabel=1;fontSize=15;" parent="58zZ9XWiCAFXsrdQ09uZ-1" vertex="1">
                    <mxGeometry x="130" y="160" width="590" height="420" as="geometry">
                        <mxPoint x="-3" y="221" as="offset"/>
                    </mxGeometry>
                </mxCell>
                <mxCell id="58zZ9XWiCAFXsrdQ09uZ-5" value="Uses" style="edgeStyle=orthogonalEdgeStyle;rounded=0;orthogonalLoop=1;jettySize=auto;html=1;fontColor=#000000;fontSize=15;" parent="58zZ9XWiCAFXsrdQ09uZ-1" source="58zZ9XWiCAFXsrdQ09uZ-7" edge="1">
                    <mxGeometry relative="1" as="geometry">
                        <mxPoint x="320" y="460" as="targetPoint"/>
                    </mxGeometry>
                </mxCell>
                <mxCell id="58zZ9XWiCAFXsrdQ09uZ-6" value="Governs Access&lt;br style=&quot;font-size: 15px;&quot;&gt;To Prefix" style="edgeStyle=orthogonalEdgeStyle;rounded=0;orthogonalLoop=1;jettySize=auto;html=1;entryX=1;entryY=0.5;entryDx=0;entryDy=0;entryPerimeter=0;fontColor=#000000;exitX=0.5;exitY=0;exitDx=0;exitDy=0;exitPerimeter=0;fontSize=15;" parent="58zZ9XWiCAFXsrdQ09uZ-1" source="58zZ9XWiCAFXsrdQ09uZ-7" target="58zZ9XWiCAFXsrdQ09uZ-8" edge="1">
                    <mxGeometry x="-0.5464" relative="1" as="geometry">
                        <Array as="points">
                            <mxPoint x="599" y="229"/>
                        </Array>
                        <mxPoint as="offset"/>
                    </mxGeometry>
                </mxCell>
                <mxCell id="qrFUrkws9cwjGliliKrb-7" value="Generates" style="edgeStyle=orthogonalEdgeStyle;rounded=0;orthogonalLoop=1;jettySize=auto;html=1;fontSize=15;fontColor=#000000;entryX=1;entryY=0.5;entryDx=0;entryDy=0;" parent="58zZ9XWiCAFXsrdQ09uZ-1" source="58zZ9XWiCAFXsrdQ09uZ-7" target="qrFUrkws9cwjGliliKrb-2" edge="1">
                    <mxGeometry x="-0.1401" relative="1" as="geometry">
                        <Array as="points">
                            <mxPoint x="600" y="670"/>
                        </Array>
                        <mxPoint as="offset"/>
                    </mxGeometry>
                </mxCell>
                <mxCell id="58zZ9XWiCAFXsrdQ09uZ-7" value="Data Lake &lt;br style=&quot;font-size: 15px;&quot;&gt;Location" style="sketch=0;points=[[0,0,0],[0.25,0,0],[0.5,0,0],[0.75,0,0],[1,0,0],[0,1,0],[0.25,1,0],[0.5,1,0],[0.75,1,0],[1,1,0],[0,0.25,0],[0,0.5,0],[0,0.75,0],[1,0.25,0],[1,0.5,0],[1,0.75,0]];outlineConnect=0;fontColor=#232F3E;gradientColor=#945DF2;gradientDirection=north;fillColor=#5A30B5;strokeColor=#ffffff;dashed=0;verticalLabelPosition=middle;verticalAlign=middle;align=left;html=1;fontSize=15;fontStyle=0;aspect=fixed;shape=mxgraph.aws4.resourceIcon;resIcon=mxgraph.aws4.lake_formation;labelPosition=right;" parent="58zZ9XWiCAFXsrdQ09uZ-1" vertex="1">
                    <mxGeometry x="560" y="420" width="78" height="78" as="geometry"/>
                </mxCell>
                <mxCell id="58zZ9XWiCAFXsrdQ09uZ-8" value="Data Lake Bucket Prefix" style="sketch=0;points=[[0,0,0],[0.25,0,0],[0.5,0,0],[0.75,0,0],[1,0,0],[0,1,0],[0.25,1,0],[0.5,1,0],[0.75,1,0],[1,1,0],[0,0.25,0],[0,0.5,0],[0,0.75,0],[1,0.25,0],[1,0.5,0],[1,0.75,0]];outlineConnect=0;fontColor=#232F3E;gradientColor=#60A337;gradientDirection=north;fillColor=#277116;strokeColor=#ffffff;dashed=0;verticalLabelPosition=bottom;verticalAlign=top;align=center;html=1;fontSize=15;fontStyle=0;aspect=fixed;shape=mxgraph.aws4.resourceIcon;resIcon=mxgraph.aws4.s3;" parent="58zZ9XWiCAFXsrdQ09uZ-1" vertex="1">
                    <mxGeometry x="400" y="190" width="78" height="78" as="geometry"/>
                </mxCell>
                <mxCell id="58zZ9XWiCAFXsrdQ09uZ-9" value="" style="group;labelPosition=left;verticalLabelPosition=middle;align=right;verticalAlign=middle;fontSize=15;" parent="58zZ9XWiCAFXsrdQ09uZ-1" vertex="1" connectable="0">
                    <mxGeometry x="240" y="420" width="80" height="80" as="geometry"/>
                </mxCell>
                <mxCell id="58zZ9XWiCAFXsrdQ09uZ-10" value="&lt;font color=&quot;#000000&quot; style=&quot;font-size: 15px;&quot;&gt;LF Location Access Role&lt;/font&gt;" style="whiteSpace=wrap;html=1;aspect=fixed;fontColor=#ffffff;strokeColor=none;strokeWidth=4;fillColor=#e51400;verticalAlign=bottom;movableLabel=1;fontSize=15;" parent="58zZ9XWiCAFXsrdQ09uZ-9" vertex="1">
                    <mxGeometry width="80" height="80" as="geometry">
                        <mxPoint x="-70" as="offset"/>
                    </mxGeometry>
                </mxCell>
                <mxCell id="58zZ9XWiCAFXsrdQ09uZ-11" value="" style="sketch=0;outlineConnect=0;fontColor=#232F3E;gradientColor=none;fillColor=#FFFFFF;strokeColor=none;dashed=0;verticalLabelPosition=bottom;verticalAlign=top;align=center;html=1;fontSize=15;fontStyle=0;aspect=fixed;pointerEvents=1;shape=mxgraph.aws4.role;" parent="58zZ9XWiCAFXsrdQ09uZ-9" vertex="1">
                    <mxGeometry x="7.779999999999973" y="21.82000000000005" width="64.45" height="36.36" as="geometry"/>
                </mxCell>
                <mxCell id="58zZ9XWiCAFXsrdQ09uZ-12" value="" style="sketch=0;points=[[0,0,0],[0.25,0,0],[0.5,0,0],[0.75,0,0],[1,0,0],[0,1,0],[0.25,1,0],[0.5,1,0],[0.75,1,0],[1,1,0],[0,0.25,0],[0,0.5,0],[0,0.75,0],[1,0.25,0],[1,0.5,0],[1,0.75,0]];outlineConnect=0;fontColor=#232F3E;gradientColor=#945DF2;gradientDirection=north;fillColor=#5A30B5;strokeColor=#ffffff;dashed=0;verticalLabelPosition=middle;verticalAlign=middle;align=right;html=1;fontSize=15;fontStyle=0;aspect=fixed;shape=mxgraph.aws4.resourceIcon;resIcon=mxgraph.aws4.lake_formation;labelPosition=left;" parent="58zZ9XWiCAFXsrdQ09uZ-9" vertex="1">
                    <mxGeometry x="60" y="60" width="20" height="20" as="geometry"/>
                </mxCell>
                <mxCell id="58zZ9XWiCAFXsrdQ09uZ-13" value="Access to Prefix&lt;br style=&quot;font-size: 15px;&quot;&gt;(Granted in Code)" style="edgeStyle=orthogonalEdgeStyle;rounded=0;orthogonalLoop=1;jettySize=auto;html=1;fontColor=#000000;fontSize=15;" parent="58zZ9XWiCAFXsrdQ09uZ-1" source="58zZ9XWiCAFXsrdQ09uZ-10" target="58zZ9XWiCAFXsrdQ09uZ-8" edge="1">
                    <mxGeometry x="-0.4565" relative="1" as="geometry">
                        <mxPoint x="590" y="400" as="sourcePoint"/>
                        <mxPoint x="460" y="229" as="targetPoint"/>
                        <Array as="points">
                            <mxPoint x="280" y="229"/>
                        </Array>
                        <mxPoint as="offset"/>
                    </mxGeometry>
                </mxCell>
                <mxCell id="58zZ9XWiCAFXsrdQ09uZ-28" value="Table Data Location" style="edgeStyle=orthogonalEdgeStyle;rounded=0;orthogonalLoop=1;jettySize=auto;html=1;entryX=0.5;entryY=0;entryDx=0;entryDy=0;entryPerimeter=0;fontColor=#000000;exitX=0.5;exitY=1;exitDx=0;exitDy=0;exitPerimeter=0;fontSize=15;" parent="58zZ9XWiCAFXsrdQ09uZ-1" source="58zZ9XWiCAFXsrdQ09uZ-30" target="58zZ9XWiCAFXsrdQ09uZ-8" edge="1">
                    <mxGeometry x="0.0909" relative="1" as="geometry">
                        <Array as="points">
                            <mxPoint x="439" y="120"/>
                            <mxPoint x="439" y="120"/>
                        </Array>
                        <mxPoint as="offset"/>
                    </mxGeometry>
                </mxCell>
                <mxCell id="58zZ9XWiCAFXsrdQ09uZ-30" value="Glue Tables" style="sketch=0;points=[[0,0,0],[0.25,0,0],[0.5,0,0],[0.75,0,0],[1,0,0],[0,1,0],[0.25,1,0],[0.5,1,0],[0.75,1,0],[1,1,0],[0,0.25,0],[0,0.5,0],[0,0.75,0],[1,0.25,0],[1,0.5,0],[1,0.75,0]];outlineConnect=0;fontColor=#232F3E;gradientColor=#945DF2;gradientDirection=north;fillColor=#5A30B5;strokeColor=#ffffff;dashed=0;verticalLabelPosition=middle;verticalAlign=middle;align=right;html=1;fontSize=15;fontStyle=0;aspect=fixed;shape=mxgraph.aws4.resourceIcon;resIcon=mxgraph.aws4.glue;labelPosition=left;" parent="58zZ9XWiCAFXsrdQ09uZ-1" vertex="1">
                    <mxGeometry x="400" y="-20" width="78" height="78" as="geometry"/>
                </mxCell>
                <mxCell id="58zZ9XWiCAFXsrdQ09uZ-44" value="&lt;font color=&quot;#000000&quot; face=&quot;helvetica&quot; style=&quot;font-size: 15px&quot;&gt;&lt;span style=&quot;font-size: 15px ; background-color: rgb(255 , 255 , 255)&quot;&gt;CAEF-Managed&lt;br&gt;SAML Federation Provider&lt;/span&gt;&lt;/font&gt;" style="sketch=0;points=[[0,0,0],[0.25,0,0],[0.5,0,0],[0.75,0,0],[1,0,0],[0,1,0],[0.25,1,0],[0.5,1,0],[0.75,1,0],[1,1,0],[0,0.25,0],[0,0.5,0],[0,0.75,0],[1,0.25,0],[1,0.5,0],[1,0.75,0]];outlineConnect=0;fontColor=#232F3E;gradientColor=#F54749;gradientDirection=north;fillColor=#C7131F;strokeColor=#ffffff;dashed=0;verticalLabelPosition=bottom;verticalAlign=top;align=center;html=1;fontSize=15;fontStyle=0;aspect=fixed;shape=mxgraph.aws4.resourceIcon;resIcon=mxgraph.aws4.identity_and_access_management;labelPosition=center;" parent="58zZ9XWiCAFXsrdQ09uZ-1" vertex="1">
                    <mxGeometry x="1626.93" y="920" width="78" height="78" as="geometry"/>
                </mxCell>
                <mxCell id="58zZ9XWiCAFXsrdQ09uZ-46" value="&lt;span style=&quot;color: rgb(0 , 0 , 0)&quot;&gt;CAEF&amp;nbsp;&lt;/span&gt;&lt;font color=&quot;#000000&quot; style=&quot;font-size: 15px&quot;&gt;Athena Workgroup Config&lt;/font&gt;" style="rounded=1;whiteSpace=wrap;html=1;fontColor=#FFFFFF;strokeColor=#FF8000;strokeWidth=4;fillColor=none;dashed=1;verticalAlign=middle;movableLabel=1;fontSize=15;" parent="58zZ9XWiCAFXsrdQ09uZ-1" vertex="1">
                    <mxGeometry x="740.0000000000001" y="829" width="520.07" height="420" as="geometry">
                        <mxPoint x="3" y="221" as="offset"/>
                    </mxGeometry>
                </mxCell>
                <mxCell id="58zZ9XWiCAFXsrdQ09uZ-47" value="Athena Workgroup" style="sketch=0;points=[[0,0,0],[0.25,0,0],[0.5,0,0],[0.75,0,0],[1,0,0],[0,1,0],[0.25,1,0],[0.5,1,0],[0.75,1,0],[1,1,0],[0,0.25,0],[0,0.5,0],[0,0.75,0],[1,0.25,0],[1,0.5,0],[1,0.75,0]];outlineConnect=0;fontColor=#232F3E;gradientColor=#945DF2;gradientDirection=north;fillColor=#5A30B5;strokeColor=#ffffff;dashed=0;verticalLabelPosition=bottom;verticalAlign=top;align=center;html=1;fontSize=15;fontStyle=0;aspect=fixed;shape=mxgraph.aws4.resourceIcon;resIcon=mxgraph.aws4.athena;" parent="58zZ9XWiCAFXsrdQ09uZ-1" vertex="1">
                    <mxGeometry x="870.0000000000001" y="879" width="78" height="78" as="geometry"/>
                </mxCell>
                <mxCell id="58zZ9XWiCAFXsrdQ09uZ-48" value="Athena Workgroup&lt;br style=&quot;font-size: 15px;&quot;&gt;Results Bucket" style="sketch=0;points=[[0,0,0],[0.25,0,0],[0.5,0,0],[0.75,0,0],[1,0,0],[0,1,0],[0.25,1,0],[0.5,1,0],[0.75,1,0],[1,1,0],[0,0.25,0],[0,0.5,0],[0,0.75,0],[1,0.25,0],[1,0.5,0],[1,0.75,0]];outlineConnect=0;fontColor=#232F3E;gradientColor=#60A337;gradientDirection=north;fillColor=#277116;strokeColor=#ffffff;dashed=0;verticalLabelPosition=bottom;verticalAlign=top;align=center;html=1;fontSize=15;fontStyle=0;aspect=fixed;shape=mxgraph.aws4.resourceIcon;resIcon=mxgraph.aws4.s3;" parent="58zZ9XWiCAFXsrdQ09uZ-1" vertex="1">
                    <mxGeometry x="870.0000000000001" y="1099" width="78" height="78" as="geometry"/>
                </mxCell>
                <mxCell id="58zZ9XWiCAFXsrdQ09uZ-49" value="Attached To&lt;br&gt;Role" style="edgeStyle=orthogonalEdgeStyle;rounded=0;orthogonalLoop=1;jettySize=auto;html=1;entryX=0;entryY=0.75;entryDx=0;entryDy=0;fontColor=#000000;fontSize=15;" parent="58zZ9XWiCAFXsrdQ09uZ-1" source="58zZ9XWiCAFXsrdQ09uZ-52" target="OqTWC3pOlkOdufOc6wLX-4" edge="1">
                    <mxGeometry x="-0.0956" relative="1" as="geometry">
                        <mxPoint x="1654" y="910" as="targetPoint"/>
                        <Array as="points">
                            <mxPoint x="1400" y="1028"/>
                            <mxPoint x="1400" y="809"/>
                        </Array>
                        <mxPoint y="-1" as="offset"/>
                    </mxGeometry>
                </mxCell>
                <mxCell id="58zZ9XWiCAFXsrdQ09uZ-50" value="Read/Write Access&lt;br style=&quot;font-size: 15px;&quot;&gt;Granted" style="edgeStyle=orthogonalEdgeStyle;rounded=0;orthogonalLoop=1;jettySize=auto;html=1;fontColor=#000000;fontSize=15;" parent="58zZ9XWiCAFXsrdQ09uZ-1" source="58zZ9XWiCAFXsrdQ09uZ-52" target="58zZ9XWiCAFXsrdQ09uZ-48" edge="1">
                    <mxGeometry x="0.1615" relative="1" as="geometry">
                        <Array as="points">
                            <mxPoint x="1159" y="1147"/>
                        </Array>
                        <mxPoint as="offset"/>
                    </mxGeometry>
                </mxCell>
                <mxCell id="58zZ9XWiCAFXsrdQ09uZ-51" value="Access Granted" style="edgeStyle=orthogonalEdgeStyle;rounded=0;orthogonalLoop=1;jettySize=auto;html=1;fontColor=#000000;fontSize=15;entryX=1;entryY=0.5;entryDx=0;entryDy=0;entryPerimeter=0;" parent="58zZ9XWiCAFXsrdQ09uZ-1" source="58zZ9XWiCAFXsrdQ09uZ-52" target="58zZ9XWiCAFXsrdQ09uZ-47" edge="1">
                    <mxGeometry x="0.1348" relative="1" as="geometry">
                        <Array as="points">
                            <mxPoint x="1159" y="918"/>
                        </Array>
                        <mxPoint as="offset"/>
                    </mxGeometry>
                </mxCell>
                <mxCell id="58zZ9XWiCAFXsrdQ09uZ-52" value="&lt;span style=&quot;color: rgb(0 , 0 , 0) ; text-align: center ; background-color: rgb(255 , 255 , 255)&quot;&gt;athenaWorkgroupUserRoles&lt;/span&gt;&lt;font color=&quot;#000000&quot; face=&quot;helvetica&quot; style=&quot;font-size: 15px&quot;&gt;&lt;span style=&quot;font-size: 15px ; background-color: rgb(255 , 255 , 255)&quot;&gt;&lt;br style=&quot;font-size: 15px&quot;&gt;&lt;/span&gt;&lt;/font&gt;Access Policies" style="sketch=0;points=[[0,0,0],[0.25,0,0],[0.5,0,0],[0.75,0,0],[1,0,0],[0,1,0],[0.25,1,0],[0.5,1,0],[0.75,1,0],[1,1,0],[0,0.25,0],[0,0.5,0],[0,0.75,0],[1,0.25,0],[1,0.5,0],[1,0.75,0]];outlineConnect=0;fontColor=#232F3E;gradientColor=#F54749;gradientDirection=north;fillColor=#C7131F;strokeColor=#ffffff;dashed=0;verticalLabelPosition=middle;verticalAlign=middle;align=right;html=1;fontSize=15;fontStyle=0;aspect=fixed;shape=mxgraph.aws4.resourceIcon;resIcon=mxgraph.aws4.identity_and_access_management;labelPosition=left;" parent="58zZ9XWiCAFXsrdQ09uZ-1" vertex="1">
                    <mxGeometry x="1120" y="989" width="78" height="78" as="geometry"/>
                </mxCell>
                <mxCell id="OqTWC3pOlkOdufOc6wLX-0" value="&lt;span style=&quot;color: rgb(0 , 0 , 0)&quot;&gt;CAEF&amp;nbsp;&lt;/span&gt;&lt;font color=&quot;#000000&quot; style=&quot;font-size: 15px&quot;&gt;Lake Formation Settings&lt;br style=&quot;font-size: 15px&quot;&gt;Config&lt;br style=&quot;font-size: 15px&quot;&gt;&lt;/font&gt;" style="rounded=1;whiteSpace=wrap;html=1;fontColor=#FFFFFF;strokeColor=#FF8000;strokeWidth=4;fillColor=none;dashed=1;verticalAlign=middle;movableLabel=1;fontSize=15;" parent="58zZ9XWiCAFXsrdQ09uZ-1" vertex="1">
                    <mxGeometry x="1544.93" y="200" width="240" height="220" as="geometry">
                        <mxPoint x="-5" y="130" as="offset"/>
                    </mxGeometry>
                </mxCell>
                <mxCell id="OqTWC3pOlkOdufOc6wLX-2" value="&lt;span style=&quot;color: rgb(0 , 0 , 0)&quot;&gt;CAEF&amp;nbsp;&lt;/span&gt;&lt;font color=&quot;#000000&quot; style=&quot;font-size: 15px&quot;&gt;Lake Formation &lt;br&gt;Access&amp;nbsp;Control Config&lt;/font&gt;" style="rounded=1;whiteSpace=wrap;html=1;fontColor=#FFFFFF;strokeColor=#FF8000;strokeWidth=4;fillColor=none;dashed=1;verticalAlign=middle;movableLabel=1;fontSize=15;" parent="58zZ9XWiCAFXsrdQ09uZ-1" vertex="1">
                    <mxGeometry x="999.9299999999997" y="200" width="240" height="250" as="geometry">
                        <mxPoint x="-200" y="5" as="offset"/>
                    </mxGeometry>
                </mxCell>
                <mxCell id="OqTWC3pOlkOdufOc6wLX-3" value="" style="group;labelPosition=center;verticalLabelPosition=middle;align=center;verticalAlign=middle;fontSize=15;" parent="58zZ9XWiCAFXsrdQ09uZ-1" vertex="1" connectable="0">
                    <mxGeometry x="1624.93" y="749" width="80" height="80" as="geometry"/>
                </mxCell>
                <mxCell id="OqTWC3pOlkOdufOc6wLX-4" value="&lt;font color=&quot;#000000&quot; style=&quot;font-size: 15px;&quot;&gt;User Federation&lt;br style=&quot;font-size: 15px;&quot;&gt;Role&lt;br style=&quot;font-size: 15px;&quot;&gt;&lt;/font&gt;" style="whiteSpace=wrap;html=1;aspect=fixed;fontColor=#ffffff;strokeColor=none;strokeWidth=4;fillColor=#e51400;verticalAlign=bottom;movableLabel=1;fontSize=15;" parent="OqTWC3pOlkOdufOc6wLX-3" vertex="1">
                    <mxGeometry width="80" height="80" as="geometry">
                        <mxPoint y="61" as="offset"/>
                    </mxGeometry>
                </mxCell>
                <mxCell id="OqTWC3pOlkOdufOc6wLX-5" value="" style="sketch=0;outlineConnect=0;fontColor=#232F3E;gradientColor=none;fillColor=#FFFFFF;strokeColor=none;dashed=0;verticalLabelPosition=bottom;verticalAlign=top;align=center;html=1;fontSize=15;fontStyle=0;aspect=fixed;pointerEvents=1;shape=mxgraph.aws4.role;" parent="OqTWC3pOlkOdufOc6wLX-3" vertex="1">
                    <mxGeometry x="7.779999999999973" y="21.82000000000005" width="64.45" height="36.36" as="geometry"/>
                </mxCell>
                <mxCell id="OqTWC3pOlkOdufOc6wLX-6" value="" style="sketch=0;points=[[0,0,0],[0.25,0,0],[0.5,0,0],[0.75,0,0],[1,0,0],[0,1,0],[0.25,1,0],[0.5,1,0],[0.75,1,0],[1,1,0],[0,0.25,0],[0,0.5,0],[0,0.75,0],[1,0.25,0],[1,0.5,0],[1,0.75,0]];outlineConnect=0;fontColor=#232F3E;gradientColor=#945DF2;gradientDirection=north;fillColor=#5A30B5;strokeColor=#ffffff;dashed=0;verticalLabelPosition=bottom;verticalAlign=top;align=center;html=1;fontSize=15;fontStyle=0;aspect=fixed;shape=mxgraph.aws4.resourceIcon;resIcon=mxgraph.aws4.glue;" parent="OqTWC3pOlkOdufOc6wLX-3" vertex="1">
                    <mxGeometry x="60" y="60" width="20" height="20" as="geometry"/>
                </mxCell>
                <mxCell id="OqTWC3pOlkOdufOc6wLX-7" value="&lt;span style=&quot;color: rgb(0 , 0 , 0)&quot;&gt;CAEF&amp;nbsp;&lt;/span&gt;&lt;font color=&quot;#000000&quot; style=&quot;font-size: 15px&quot;&gt;DataOps Project Config&lt;/font&gt;" style="rounded=1;whiteSpace=wrap;html=1;fontColor=#FFFFFF;strokeColor=#FF8000;strokeWidth=4;fillColor=none;dashed=1;verticalAlign=middle;movableLabel=1;fontSize=15;" parent="58zZ9XWiCAFXsrdQ09uZ-1" vertex="1">
                    <mxGeometry x="1529.93" y="-60" width="270" height="210" as="geometry">
                        <mxPoint x="4" y="119" as="offset"/>
                    </mxGeometry>
                </mxCell>
                <mxCell id="OqTWC3pOlkOdufOc6wLX-8" value="Glue Project Database" style="sketch=0;points=[[0,0,0],[0.25,0,0],[0.5,0,0],[0.75,0,0],[1,0,0],[0,1,0],[0.25,1,0],[0.5,1,0],[0.75,1,0],[1,1,0],[0,0.25,0],[0,0.5,0],[0,0.75,0],[1,0.25,0],[1,0.5,0],[1,0.75,0]];outlineConnect=0;fontColor=#232F3E;gradientColor=#945DF2;gradientDirection=north;fillColor=#5A30B5;strokeColor=#ffffff;dashed=0;verticalLabelPosition=bottom;verticalAlign=top;align=center;html=1;fontSize=15;fontStyle=0;aspect=fixed;shape=mxgraph.aws4.resourceIcon;resIcon=mxgraph.aws4.glue;" parent="58zZ9XWiCAFXsrdQ09uZ-1" vertex="1">
                    <mxGeometry x="1626.93" width="78" height="78" as="geometry"/>
                </mxCell>
                <mxCell id="OqTWC3pOlkOdufOc6wLX-9" value="Read/Write &lt;br style=&quot;font-size: 15px;&quot;&gt;Grant" style="sketch=0;points=[[0,0,0],[0.25,0,0],[0.5,0,0],[0.75,0,0],[1,0,0],[0,1,0],[0.25,1,0],[0.5,1,0],[0.75,1,0],[1,1,0],[0,0.25,0],[0,0.5,0],[0,0.75,0],[1,0.25,0],[1,0.5,0],[1,0.75,0]];outlineConnect=0;fontColor=#232F3E;gradientColor=#945DF2;gradientDirection=north;fillColor=#5A30B5;strokeColor=#ffffff;dashed=0;verticalLabelPosition=middle;verticalAlign=middle;align=left;html=1;fontSize=15;fontStyle=0;aspect=fixed;shape=mxgraph.aws4.resourceIcon;resIcon=mxgraph.aws4.lake_formation;labelPosition=right;" parent="58zZ9XWiCAFXsrdQ09uZ-1" vertex="1">
                    <mxGeometry x="1070.9299999999998" y="286" width="78" height="78" as="geometry"/>
                </mxCell>
                <mxCell id="OqTWC3pOlkOdufOc6wLX-10" value="Grants Access To" style="edgeStyle=orthogonalEdgeStyle;rounded=0;orthogonalLoop=1;jettySize=auto;html=1;fontColor=#000000;exitX=0;exitY=0.5;exitDx=0;exitDy=0;exitPerimeter=0;fontSize=15;entryX=0;entryY=0.75;entryDx=0;entryDy=0;entryPerimeter=0;" parent="58zZ9XWiCAFXsrdQ09uZ-1" source="OqTWC3pOlkOdufOc6wLX-14" target="OqTWC3pOlkOdufOc6wLX-8" edge="1">
                    <mxGeometry relative="1" as="geometry">
                        <mxPoint x="1619.93" y="59" as="targetPoint"/>
                        <Array as="points">
                            <mxPoint x="1389.93" y="609"/>
                            <mxPoint x="1389.93" y="59"/>
                        </Array>
                    </mxGeometry>
                </mxCell>
                <mxCell id="OqTWC3pOlkOdufOc6wLX-11" value="Access Granted For&lt;br style=&quot;font-size: 15px;&quot;&gt;Federated Principal" style="edgeStyle=orthogonalEdgeStyle;rounded=0;orthogonalLoop=1;jettySize=auto;html=1;entryX=0.5;entryY=1;entryDx=0;entryDy=0;entryPerimeter=0;fontColor=#000000;fontSize=15;exitX=0;exitY=0.25;exitDx=0;exitDy=0;" parent="58zZ9XWiCAFXsrdQ09uZ-1" source="OqTWC3pOlkOdufOc6wLX-4" target="OqTWC3pOlkOdufOc6wLX-9" edge="1">
                    <mxGeometry x="0.3967" y="-1" relative="1" as="geometry">
                        <Array as="points">
                            <mxPoint x="1110" y="769"/>
                        </Array>
                        <mxPoint as="offset"/>
                        <mxPoint x="1630" y="769" as="sourcePoint"/>
                    </mxGeometry>
                </mxCell>
                <mxCell id="OqTWC3pOlkOdufOc6wLX-12" value="Grants Access For" style="edgeStyle=orthogonalEdgeStyle;rounded=0;orthogonalLoop=1;jettySize=auto;html=1;entryX=0.5;entryY=0;entryDx=0;entryDy=0;fontColor=#000000;fontSize=15;" parent="58zZ9XWiCAFXsrdQ09uZ-1" source="OqTWC3pOlkOdufOc6wLX-14" target="OqTWC3pOlkOdufOc6wLX-4" edge="1">
                    <mxGeometry relative="1" as="geometry"/>
                </mxCell>
                <mxCell id="OqTWC3pOlkOdufOc6wLX-13" value="Grants Access Via" style="edgeStyle=orthogonalEdgeStyle;rounded=0;orthogonalLoop=1;jettySize=auto;html=1;fontSize=15;fontColor=#000000;" parent="58zZ9XWiCAFXsrdQ09uZ-1" source="OqTWC3pOlkOdufOc6wLX-14" target="OqTWC3pOlkOdufOc6wLX-17" edge="1">
                    <mxGeometry x="0.4628" relative="1" as="geometry">
                        <mxPoint y="-1" as="offset"/>
                    </mxGeometry>
                </mxCell>
                <mxCell id="OqTWC3pOlkOdufOc6wLX-14" value="&lt;span style=&quot;color: rgb(0, 0, 0); font-family: helvetica; font-size: 15px; font-style: normal; font-weight: 400; letter-spacing: normal; text-align: center; text-indent: 0px; text-transform: none; word-spacing: 0px; background-color: rgb(255, 255, 255); display: inline; float: none;&quot;&gt;Glue Database Read/Write Access&lt;/span&gt;&lt;br style=&quot;color: rgb(0, 0, 0); font-family: helvetica; font-size: 15px; font-style: normal; font-weight: 400; letter-spacing: normal; text-align: center; text-indent: 0px; text-transform: none; word-spacing: 0px;&quot;&gt;&lt;span style=&quot;color: rgb(0, 0, 0); font-family: helvetica; font-size: 15px; font-style: normal; font-weight: 400; letter-spacing: normal; text-align: center; text-indent: 0px; text-transform: none; word-spacing: 0px; background-color: rgb(255, 255, 255); display: inline; float: none;&quot;&gt;IAM Managed Policy&lt;/span&gt;&lt;br style=&quot;color: rgb(0, 0, 0); font-family: helvetica; font-size: 15px; font-style: normal; font-weight: 400; letter-spacing: normal; text-align: center; text-indent: 0px; text-transform: none; word-spacing: 0px;&quot;&gt;" style="sketch=0;points=[[0,0,0],[0.25,0,0],[0.5,0,0],[0.75,0,0],[1,0,0],[0,1,0],[0.25,1,0],[0.5,1,0],[0.75,1,0],[1,1,0],[0,0.25,0],[0,0.5,0],[0,0.75,0],[1,0.25,0],[1,0.5,0],[1,0.75,0]];outlineConnect=0;fontColor=#232F3E;gradientColor=#F54749;gradientDirection=north;fillColor=#C7131F;strokeColor=#ffffff;dashed=0;verticalLabelPosition=top;verticalAlign=bottom;align=center;html=1;fontSize=15;fontStyle=0;aspect=fixed;shape=mxgraph.aws4.resourceIcon;resIcon=mxgraph.aws4.identity_and_access_management;labelPosition=center;" parent="58zZ9XWiCAFXsrdQ09uZ-1" vertex="1">
                    <mxGeometry x="1626.93" y="570" width="78" height="78" as="geometry"/>
                </mxCell>
                <mxCell id="OqTWC3pOlkOdufOc6wLX-15" value="If Yes,&lt;br style=&quot;font-size: 15px;&quot;&gt;creates&lt;br style=&quot;font-size: 15px;&quot;&gt;on new&amp;nbsp;&lt;br style=&quot;font-size: 15px;&quot;&gt;Databases and&lt;br style=&quot;font-size: 15px;&quot;&gt;Tables" style="edgeStyle=orthogonalEdgeStyle;rounded=0;orthogonalLoop=1;jettySize=auto;html=1;fontSize=15;fontColor=#000000;" parent="58zZ9XWiCAFXsrdQ09uZ-1" source="OqTWC3pOlkOdufOc6wLX-16" target="OqTWC3pOlkOdufOc6wLX-17" edge="1">
                    <mxGeometry relative="1" as="geometry"/>
                </mxCell>
                <mxCell id="OqTWC3pOlkOdufOc6wLX-16" value="Default&lt;br style=&quot;font-size: 15px;&quot;&gt;IAMAllowedPrincipals&lt;br style=&quot;font-size: 15px;&quot;&gt;Settings" style="sketch=0;points=[[0,0,0],[0.25,0,0],[0.5,0,0],[0.75,0,0],[1,0,0],[0,1,0],[0.25,1,0],[0.5,1,0],[0.75,1,0],[1,1,0],[0,0.25,0],[0,0.5,0],[0,0.75,0],[1,0.25,0],[1,0.5,0],[1,0.75,0]];outlineConnect=0;fontColor=#232F3E;gradientColor=#945DF2;gradientDirection=north;fillColor=#5A30B5;strokeColor=#ffffff;dashed=0;verticalLabelPosition=bottom;verticalAlign=top;align=center;html=1;fontSize=15;fontStyle=0;aspect=fixed;shape=mxgraph.aws4.resourceIcon;resIcon=mxgraph.aws4.lake_formation;labelPosition=center;" parent="58zZ9XWiCAFXsrdQ09uZ-1" vertex="1">
                    <mxGeometry x="1625.93" y="255" width="78" height="78" as="geometry"/>
                </mxCell>
                <mxCell id="OqTWC3pOlkOdufOc6wLX-17" value="IAMAllowedPrincipals&lt;br style=&quot;font-size: 15px;&quot;&gt;Grant" style="sketch=0;points=[[0,0,0],[0.25,0,0],[0.5,0,0],[0.75,0,0],[1,0,0],[0,1,0],[0.25,1,0],[0.5,1,0],[0.75,1,0],[1,1,0],[0,0.25,0],[0,0.5,0],[0,0.75,0],[1,0.25,0],[1,0.5,0],[1,0.75,0]];outlineConnect=0;fontColor=#232F3E;gradientColor=#945DF2;gradientDirection=north;fillColor=#5A30B5;strokeColor=#ffffff;dashed=0;verticalLabelPosition=middle;verticalAlign=middle;align=left;html=1;fontSize=15;fontStyle=0;aspect=fixed;shape=mxgraph.aws4.resourceIcon;resIcon=mxgraph.aws4.lake_formation;labelPosition=right;" parent="58zZ9XWiCAFXsrdQ09uZ-1" vertex="1">
                    <mxGeometry x="1899.93" y="255" width="78" height="78" as="geometry"/>
                </mxCell>
                <mxCell id="OqTWC3pOlkOdufOc6wLX-18" value="&lt;span style=&quot;font-size: 17px&quot;&gt;Required if IAMAllowedPrincipals&lt;/span&gt;&lt;br style=&quot;font-size: 17px&quot;&gt;&lt;span style=&quot;font-size: 17px&quot;&gt;Grant&amp;nbsp;&lt;/span&gt;&lt;span style=&quot;font-size: 17px&quot;&gt;does not exist&lt;/span&gt;" style="strokeWidth=1;shadow=0;dashed=0;align=center;html=1;shape=mxgraph.mockup.text.callout;linkText=;textSize=17;textColor=#666666;callDir=SW;callStyle=line;fontSize=15;fontColor=#666666;align=left;verticalAlign=bottom;strokeColor=#666666;fillColor=none;movableLabel=1;" parent="58zZ9XWiCAFXsrdQ09uZ-1" vertex="1">
                    <mxGeometry x="859.9999999999999" y="360" width="210.93" height="107" as="geometry">
                        <mxPoint x="-24" y="48" as="offset"/>
                    </mxGeometry>
                </mxCell>
                <mxCell id="OqTWC3pOlkOdufOc6wLX-19" value="Access Granted To" style="edgeStyle=orthogonalEdgeStyle;rounded=0;orthogonalLoop=1;jettySize=auto;html=1;fontColor=#000000;fontSize=15;exitX=0.5;exitY=0;exitDx=0;exitDy=0;exitPerimeter=0;entryX=0;entryY=0.25;entryDx=0;entryDy=0;entryPerimeter=0;" parent="58zZ9XWiCAFXsrdQ09uZ-1" source="OqTWC3pOlkOdufOc6wLX-9" target="OqTWC3pOlkOdufOc6wLX-8" edge="1">
                    <mxGeometry x="-0.6668" relative="1" as="geometry">
                        <Array as="points">
                            <mxPoint x="1110" y="20"/>
                        </Array>
                        <mxPoint as="offset"/>
                    </mxGeometry>
                </mxCell>
                <mxCell id="OqTWC3pOlkOdufOc6wLX-20" value="Grants Access To" style="edgeStyle=orthogonalEdgeStyle;rounded=0;orthogonalLoop=1;jettySize=auto;html=1;entryX=1;entryY=0.5;entryDx=0;entryDy=0;entryPerimeter=0;fontSize=15;fontColor=#000000;" parent="58zZ9XWiCAFXsrdQ09uZ-1" source="OqTWC3pOlkOdufOc6wLX-17" target="OqTWC3pOlkOdufOc6wLX-8" edge="1">
                    <mxGeometry x="-0.4137" relative="1" as="geometry">
                        <Array as="points">
                            <mxPoint x="1939" y="39"/>
                        </Array>
                        <mxPoint as="offset"/>
                    </mxGeometry>
                </mxCell>
                <mxCell id="OqTWC3pOlkOdufOc6wLX-22" value="AssumeRoleWithSAML&lt;br style=&quot;font-size: 15px;&quot;&gt;Trust" style="edgeStyle=orthogonalEdgeStyle;rounded=0;orthogonalLoop=1;jettySize=auto;html=1;fontSize=15;fontColor=#000000;exitX=1;exitY=0.75;exitDx=0;exitDy=0;entryX=1;entryY=0.5;entryDx=0;entryDy=0;entryPerimeter=0;" parent="58zZ9XWiCAFXsrdQ09uZ-1" source="OqTWC3pOlkOdufOc6wLX-4" target="58zZ9XWiCAFXsrdQ09uZ-44" edge="1">
                    <mxGeometry x="-0.0303" relative="1" as="geometry">
                        <mxPoint x="1622" y="789" as="sourcePoint"/>
                        <mxPoint x="1700" y="1039" as="targetPoint"/>
                        <Array as="points">
                            <mxPoint x="1780" y="809"/>
                            <mxPoint x="1780" y="959"/>
                        </Array>
                        <mxPoint as="offset"/>
                    </mxGeometry>
                </mxCell>
                <mxCell id="BdpgBtAsnvkEK83pG3IW-0" value="Executes &lt;br&gt;Within" style="edgeStyle=orthogonalEdgeStyle;rounded=0;orthogonalLoop=1;jettySize=auto;html=1;fontSize=15;fontColor=#000000;" parent="58zZ9XWiCAFXsrdQ09uZ-1" source="OqTWC3pOlkOdufOc6wLX-25" target="58zZ9XWiCAFXsrdQ09uZ-47" edge="1">
                    <mxGeometry relative="1" as="geometry"/>
                </mxCell>
                <mxCell id="BdpgBtAsnvkEK83pG3IW-1" value="Stores Results" style="edgeStyle=orthogonalEdgeStyle;rounded=0;orthogonalLoop=1;jettySize=auto;html=1;entryX=0;entryY=0.5;entryDx=0;entryDy=0;entryPerimeter=0;fontSize=15;fontColor=#000000;" parent="58zZ9XWiCAFXsrdQ09uZ-1" source="OqTWC3pOlkOdufOc6wLX-25" target="58zZ9XWiCAFXsrdQ09uZ-48" edge="1">
                    <mxGeometry x="-0.1373" relative="1" as="geometry">
                        <Array as="points">
                            <mxPoint x="580" y="918"/>
                            <mxPoint x="580" y="1138"/>
                        </Array>
                        <mxPoint as="offset"/>
                    </mxGeometry>
                </mxCell>
                <mxCell id="qrFUrkws9cwjGliliKrb-8" value="Read Table&lt;br&gt;Metadata" style="edgeStyle=orthogonalEdgeStyle;rounded=0;orthogonalLoop=1;jettySize=auto;html=1;entryX=0;entryY=0.25;entryDx=0;entryDy=0;entryPerimeter=0;fontSize=15;fontColor=#000000;exitX=0;exitY=0.75;exitDx=0;exitDy=0;exitPerimeter=0;" parent="58zZ9XWiCAFXsrdQ09uZ-1" source="OqTWC3pOlkOdufOc6wLX-25" target="58zZ9XWiCAFXsrdQ09uZ-30" edge="1">
                    <mxGeometry relative="1" as="geometry">
                        <Array as="points">
                            <mxPoint x="-60" y="938"/>
                            <mxPoint x="-60"/>
                        </Array>
                    </mxGeometry>
                </mxCell>
                <mxCell id="qrFUrkws9cwjGliliKrb-9" value="Read&lt;br&gt;Table Data&lt;br&gt;Using LF Temp&lt;br&gt;Credentials" style="edgeStyle=orthogonalEdgeStyle;rounded=0;orthogonalLoop=1;jettySize=auto;html=1;entryX=0;entryY=0.25;entryDx=0;entryDy=0;entryPerimeter=0;fontSize=15;fontColor=#000000;" parent="58zZ9XWiCAFXsrdQ09uZ-1" source="OqTWC3pOlkOdufOc6wLX-25" target="58zZ9XWiCAFXsrdQ09uZ-8" edge="1">
                    <mxGeometry relative="1" as="geometry">
                        <Array as="points">
                            <mxPoint x="40" y="918"/>
                            <mxPoint x="40" y="210"/>
                        </Array>
                    </mxGeometry>
                </mxCell>
                <mxCell id="qrFUrkws9cwjGliliKrb-10" value="Access S3&lt;br&gt;Using" style="edgeStyle=orthogonalEdgeStyle;rounded=0;orthogonalLoop=1;jettySize=auto;html=1;entryX=0;entryY=0.5;entryDx=0;entryDy=0;fontSize=15;fontColor=#000000;" parent="58zZ9XWiCAFXsrdQ09uZ-1" source="OqTWC3pOlkOdufOc6wLX-25" target="qrFUrkws9cwjGliliKrb-2" edge="1">
                    <mxGeometry x="0.6981" relative="1" as="geometry">
                        <Array as="points">
                            <mxPoint x="40" y="918"/>
                            <mxPoint x="40" y="670"/>
                        </Array>
                        <mxPoint as="offset"/>
                    </mxGeometry>
                </mxCell>
                <mxCell id="OqTWC3pOlkOdufOc6wLX-25" value="Athena Query" style="sketch=0;points=[[0,0,0],[0.25,0,0],[0.5,0,0],[0.75,0,0],[1,0,0],[0,1,0],[0.25,1,0],[0.5,1,0],[0.75,1,0],[1,1,0],[0,0.25,0],[0,0.5,0],[0,0.75,0],[1,0.25,0],[1,0.5,0],[1,0.75,0]];outlineConnect=0;fontColor=#232F3E;gradientColor=#945DF2;gradientDirection=north;fillColor=#5A30B5;strokeColor=#ffffff;dashed=0;verticalLabelPosition=bottom;verticalAlign=top;align=center;html=1;fontSize=15;fontStyle=0;aspect=fixed;shape=mxgraph.aws4.resourceIcon;resIcon=mxgraph.aws4.athena;" parent="58zZ9XWiCAFXsrdQ09uZ-1" vertex="1">
                    <mxGeometry x="387.0000000000001" y="879" width="78" height="78" as="geometry"/>
                </mxCell>
                <mxCell id="BdpgBtAsnvkEK83pG3IW-3" value="&lt;font color=&quot;#000000&quot; face=&quot;helvetica&quot; style=&quot;font-size: 15px&quot;&gt;&lt;span style=&quot;font-size: 15px ; background-color: rgb(255 , 255 , 255)&quot;&gt;Externally-Managed&lt;br&gt;SAML Federation Provider&lt;/span&gt;&lt;/font&gt;" style="sketch=0;points=[[0,0,0],[0.25,0,0],[0.5,0,0],[0.75,0,0],[1,0,0],[0,1,0],[0.25,1,0],[0.5,1,0],[0.75,1,0],[1,1,0],[0,0.25,0],[0,0.5,0],[0,0.75,0],[1,0.25,0],[1,0.5,0],[1,0.75,0]];outlineConnect=0;fontColor=#232F3E;gradientColor=#F54749;gradientDirection=north;fillColor=#C7131F;strokeColor=#ffffff;dashed=0;verticalLabelPosition=bottom;verticalAlign=top;align=center;html=1;fontSize=15;fontStyle=0;aspect=fixed;shape=mxgraph.aws4.resourceIcon;resIcon=mxgraph.aws4.identity_and_access_management;labelPosition=center;" parent="58zZ9XWiCAFXsrdQ09uZ-1" vertex="1">
                    <mxGeometry x="1977.93" y="730" width="78" height="78" as="geometry"/>
                </mxCell>
                <mxCell id="BdpgBtAsnvkEK83pG3IW-4" style="edgeStyle=orthogonalEdgeStyle;rounded=0;orthogonalLoop=1;jettySize=auto;html=1;fontSize=15;fontColor=#000000;exitX=1;exitY=0.25;exitDx=0;exitDy=0;" parent="58zZ9XWiCAFXsrdQ09uZ-1" source="OqTWC3pOlkOdufOc6wLX-4" target="BdpgBtAsnvkEK83pG3IW-3" edge="1">
                    <mxGeometry relative="1" as="geometry"/>
                </mxCell>
                <mxCell id="BdpgBtAsnvkEK83pG3IW-5" value="AssumeRoleWithSAML&lt;br&gt;Trust" style="edgeLabel;html=1;align=center;verticalAlign=middle;resizable=0;points=[];fontSize=15;fontColor=#000000;" parent="BdpgBtAsnvkEK83pG3IW-4" vertex="1" connectable="0">
                    <mxGeometry x="0.0481" y="1" relative="1" as="geometry">
                        <mxPoint x="-1" as="offset"/>
                    </mxGeometry>
                </mxCell>
                <mxCell id="qrFUrkws9cwjGliliKrb-1" value="" style="group;labelPosition=center;verticalLabelPosition=middle;align=center;verticalAlign=middle;fontSize=15;" parent="58zZ9XWiCAFXsrdQ09uZ-1" vertex="1" connectable="0">
                    <mxGeometry x="240" y="630" width="80" height="80" as="geometry"/>
                </mxCell>
                <mxCell id="qrFUrkws9cwjGliliKrb-2" value="&lt;font color=&quot;#000000&quot; style=&quot;font-size: 15px&quot;&gt;LF Temporary&lt;br&gt;Credentials&lt;br&gt;&lt;/font&gt;" style="whiteSpace=wrap;html=1;aspect=fixed;fontColor=#ffffff;strokeColor=none;strokeWidth=4;fillColor=#e51400;verticalAlign=bottom;movableLabel=1;fontSize=15;" parent="qrFUrkws9cwjGliliKrb-1" vertex="1">
                    <mxGeometry width="80" height="80" as="geometry">
                        <mxPoint x="-1" y="73" as="offset"/>
                    </mxGeometry>
                </mxCell>
                <mxCell id="qrFUrkws9cwjGliliKrb-4" value="" style="sketch=0;points=[[0,0,0],[0.25,0,0],[0.5,0,0],[0.75,0,0],[1,0,0],[0,1,0],[0.25,1,0],[0.5,1,0],[0.75,1,0],[1,1,0],[0,0.25,0],[0,0.5,0],[0,0.75,0],[1,0.25,0],[1,0.5,0],[1,0.75,0]];outlineConnect=0;fontColor=#232F3E;gradientColor=#945DF2;gradientDirection=north;fillColor=#5A30B5;strokeColor=#ffffff;dashed=0;verticalLabelPosition=middle;verticalAlign=middle;align=right;html=1;fontSize=15;fontStyle=0;aspect=fixed;shape=mxgraph.aws4.resourceIcon;resIcon=mxgraph.aws4.lake_formation;labelPosition=left;" parent="qrFUrkws9cwjGliliKrb-1" vertex="1">
                    <mxGeometry x="60" y="60" width="20" height="20" as="geometry"/>
                </mxCell>
                <mxCell id="qrFUrkws9cwjGliliKrb-0" value="" style="sketch=0;outlineConnect=0;fontColor=#232F3E;gradientColor=none;fillColor=#FFFFFF;strokeColor=none;dashed=0;verticalLabelPosition=bottom;verticalAlign=top;align=center;html=1;fontSize=12;fontStyle=0;aspect=fixed;pointerEvents=1;shape=mxgraph.aws4.addon;" parent="qrFUrkws9cwjGliliKrb-1" vertex="1">
                    <mxGeometry x="10.75" y="25" width="58.5" height="30" as="geometry"/>
                </mxCell>
                <mxCell id="qrFUrkws9cwjGliliKrb-11" value="Generated From" style="edgeStyle=orthogonalEdgeStyle;rounded=0;orthogonalLoop=1;jettySize=auto;html=1;entryX=0.5;entryY=0;entryDx=0;entryDy=0;fontSize=15;fontColor=#000000;exitX=0.5;exitY=1;exitDx=0;exitDy=0;" parent="58zZ9XWiCAFXsrdQ09uZ-1" source="58zZ9XWiCAFXsrdQ09uZ-10" target="qrFUrkws9cwjGliliKrb-2" edge="1">
                    <mxGeometry x="-0.2857" relative="1" as="geometry">
                        <Array as="points"/>
                        <mxPoint as="offset"/>
                    </mxGeometry>
                </mxCell>
                <mxCell id="qrFUrkws9cwjGliliKrb-12" value="Execute Query" style="edgeStyle=orthogonalEdgeStyle;rounded=0;orthogonalLoop=1;jettySize=auto;html=1;entryX=0.5;entryY=0;entryDx=0;entryDy=0;entryPerimeter=0;fontSize=15;fontColor=#000000;exitX=0;exitY=0.5;exitDx=0;exitDy=0;" parent="58zZ9XWiCAFXsrdQ09uZ-1" source="OqTWC3pOlkOdufOc6wLX-4" target="OqTWC3pOlkOdufOc6wLX-25" edge="1">
                    <mxGeometry relative="1" as="geometry"/>
                </mxCell>
            </root>
        </mxGraphModel>
    </diagram>
</mxfile>